<?xml version="1.0" encoding="UTF-8" standalone="no"?>
<!-- Created with Inkscape (http://www.inkscape.org/) -->

<svg
   version="1.1"
   id="svg1"
   width="250"
   height="78"
   viewBox="0 0 250 78"
   sodipodi:docname="Brava.svg"
   inkscape:version="1.4 (e7c3feb100, 2024-10-09)"
   xmlns:inkscape="http://www.inkscape.org/namespaces/inkscape"
   xmlns:sodipodi="http://sodipodi.sourceforge.net/DTD/sodipodi-0.dtd"
   xmlns="http://www.w3.org/2000/svg"
   xmlns:svg="http://www.w3.org/2000/svg">
  <defs
     id="defs1" />
  <sodipodi:namedview
     id="namedview1"
     pagecolor="#ffffff"
     bordercolor="#000000"
     borderopacity="0.25"
     inkscape:showpageshadow="2"
     inkscape:pageopacity="0.0"
     inkscape:pagecheckerboard="0"
     inkscape:deskcolor="#d1d1d1"
     inkscape:zoom="2.8206125"
     inkscape:cx="130.64538"
     inkscape:cy="-13.472251"
     inkscape:window-width="1920"
     inkscape:window-height="1043"
     inkscape:window-x="0"
     inkscape:window-y="0"
     inkscape:window-maximized="1"
     inkscape:current-layer="g1" />
  <g
     inkscape:groupmode="layer"
     inkscape:label="Image"
     id="g1">
    <path
       style="fill:#1a0572;fill-opacity:1"
       d="m 5.652479,67.258652 c 0.048585,-0.836684 0.6908554,-3.964375 3.9529885,-19.249995 2.8772065,-13.48195 2.8369005,-13.27883 2.9269495,-14.75 0.05703,-0.93169 3.372831,-1.25 13.020747,-1.25 12.07491,0 13.124275,-0.15487 15.625,-2.3059 2.939388,-2.52835 3.649223,-7.30812 1.305764,-8.79252 -0.75625,-0.47903 -7.1125,-0.87785 -14.125,-0.88627 -13.873651,-0.0167 -13.490061,0.18683 -11.591712,-6.14929 l 1.158287,-3.86602 h 14.391373 c 15.368866,0 18.624832,0.78162 21.731348,5.21679 3.651906,5.21383 1.333904,15.21662 -4.652011,20.07467 -1.590197,1.29057 -1.899914,2.01371 -1.016245,2.37277 4.119601,1.67391 5.374443,11.26677 2.333097,17.83577 -4.468031,9.650484 -11.713912,12.499995 -31.785638,12.499995 -7.325175,0 -13.2989011,-0.3375 -13.274948,-0.75 z M 35.063266,56.592177 c 4.013827,-1.67708 6.829414,-5.55431 6.372789,-8.77571 -0.579833,-4.09061 -5.898419,-5.8045 -18.01811,-5.80626 -5.880041,-8.6e-4 -10.915708,0.36206 -11.190373,0.80647 -0.274664,0.44442 1.611278,4.03685 4.190983,7.98318 l 4.690373,7.17514 5.282119,0.0168 c 2.905165,0.009 6.807663,-0.62059 8.672219,-1.39965 z m 20.545662,10.121225 c 0,-1.273553 3.173192,-17.365255 4.970233,-25.204745 0.504304,-2.2 1.175881,-5.2375 1.492394,-6.75 l 0.575477,-2.75 h 13.792387 c 12.497973,0 13.997782,-0.19136 15.980948,-2.03896 2.64592,-2.46505 3.032414,-8.42325 0.606774,-9.35406 -0.869984,-0.33384 -7.453863,-0.60698 -14.630843,-0.60698 H 65.347243 l 0.619837,-3.75 c 0.34091,-2.0625 0.624789,-4.3125 0.630842,-5 0.0083,-0.94408 3.689966,-1.25 15.043125,-1.25 16.470472,0 20.355193,0.88977 23.263483,5.32838 2.06934,3.15822 2.22855,10.51431 0.32364,14.95373 -1.85886,4.3321 -7.287458,9.21533 -11.869242,10.67682 -2.0625,0.65789 -3.72773,1.72377 -3.70051,2.36862 0.02722,0.64484 1.772053,4.53756 3.877408,8.65048 l 3.827919,7.47804 2.872595,-4.55761 c 1.57992,-2.50668 8.49759,-13.62852 15.37259,-24.71519 l 12.5,-20.15759 6.23095,-0.0128 c 5.65019,-0.0117 6.2781,0.19687 6.73686,2.23716 0.27826,1.2375 2.31998,11.25 4.53716,22.25 2.21719,11 4.62205,22.81354 5.34415,26.25231 0.7221,3.43878 1.08895,6.47628 0.81523,6.750004 -0.27373,0.273725 -2.88034,0.497681 -5.79247,0.497681 h -5.29479 l -1.0948,-4.249995 c -0.60213,-2.3375 -1.55438,-5.7125 -2.11609,-7.5 l -1.0213,-3.25 h -10.80761 -10.80761 l -4.82831,7.5 -4.82831,7.499995 h -6.598036 -6.598036 l -5.438495,-6.679125 c -2.991172,-3.67351 -6.813715,-8.28601 -8.49454,-10.25 -1.680824,-1.96398 -3.985956,-4.79613 -5.122513,-6.29366 -3.491111,-4.5999 -8.425883,-10.00655 -8.791545,-9.63223 -0.190739,0.19526 0.454811,5.30502 1.434556,11.35502 0.979745,6.05 2.079047,13.3625 2.442894,16.25 l 0.661539,5.249995 h -6.534443 c -4.682639,-4e-5 -6.534443,-0.367103 -6.534443,-1.29529 z M 134.1408,39.258657 c 0.34237,-2.0625 1.48777,-8.00464 2.54531,-13.20475 3.60642,-17.7332497 4.11998,-18.1943097 -15.26526,13.70475 l -1.97504,3.25 h 7.03625 7.03624 z m 27.58634,24 c -0.964,-4.23486 -5.54119,-26.76773 -6.7542,-33.25 -0.2573,-1.375 -1.11909,-5.65 -1.9151,-9.5 -2.30325,-11.1400997 -2.73971,-10.5 7.1595,-10.5 h 8.60841 l -0.61404,2.44651 c -0.33772,1.34558 -1.29653,8.65808 -2.13069,16.25 -0.83416,7.59192 -1.94455,17.37807 -2.46752,21.74701 -0.52297,4.36894 -0.79655,8.09783 -0.60796,8.28642 0.3032,0.3032 7.90162,-11.16898 26.47047,-39.96545 l 5.63292,-8.73551 6.78518,-0.0145 c 7.96868,-0.017 8.26679,-1.7494997 -2.75068,15.98551 -3.92926,6.325 -11.32032,18.3625 -16.42457,26.75 l -9.28046,15.249995 h -5.31499 -5.315 z m 24.04846,3.859929 c 0.18333,-0.489537 8.19864,-13.539539 17.81179,-28.999999 l 17.47846,-28.10993 h 6.27154 c 3.44935,0 6.27154,0.16358 6.27154,0.36351 0,0.64596 1.85452,9.79604 4.99327,24.63649 1.68671,7.975 3.75988,18.30665 4.60703,22.95922 0.84716,4.65258 1.76021,8.815077 2.02901,9.250002 0.2688,0.434925 -2.2059,0.790773 -5.49933,0.790773 h -5.98806 l -1.62758,-5.749995 c -0.89516,-3.1625 -1.85742,-6.5375 -2.13834,-7.5 -0.44576,-1.52726 -1.88685,-1.75 -11.32218,-1.75 h -10.81141 l -4.87121,7.48708 -4.8712,7.487083 -6.33333,0.01292 c -3.48334,0.0071 -6.18334,-0.387614 -6,-0.87715 z m 41.60253,-29.359929 c 0.5981,-2.8875 1.62795,-8.4 2.28855,-12.25 0.6606,-3.85 1.55658,-8.4625 1.99106,-10.25 0.43449,-1.7875 0.48875,-3.23767 0.12058,-3.2226 -0.86839,0.03554 -18.16939,28.51815 -18.16939,29.91224 0,0.63566 2.53967,1.06036 6.34087,1.06036 h 6.34087 z"
       id="path1" />
  </g>
</svg>
