<svg width="359.73" height="138.08" version="1.1" viewBox="0 0 269.79 103.56" xmlns="http://www.w3.org/2000/svg">
 <g transform="translate(-20.73 -.15795)">
  <path d="m268.48 17.785c6.9609 1.2969 16.633 0.63281 21.922-4.2891 1.082-1.0078-4.9062 7.6758-14.359 12.641-13.004 6.8281-29.586 7.625-43.883 5.9883 0.67578-11.047-9.5898-18.633-19.758-18.633-9.1328 0-15.996 5.6289-18.273 13.137-9.2188-0.82422-17.598-0.64062-27.652 2.1602 3.4375-16.535 21.133-27.766 46.078-28.598 24.941-0.83594 37.871 14.238 55.926 17.594" fill="#4fb847" fill-rule="evenodd"/>
  <path d="m158.49 38.98c-6.9727 1.1875-15.32 8.0938-18.406 10.66-2.9024 2.418-7.1445-2.8789-3.7383-5.2148 3.9766-2.7188 18.586-11.895 31.68-14.363 15.035-2.832 29.781 1.2461 46.715 6.5664 16.934 5.3164 25.832 5.75 41.754 5.2852-8.5234 16.055-28.938 21.371-43.023 21.316-14.691-0.05859-29.656-4.332-38.914-13.785-4.9414-5.0469-8.1953-11.809-16.066-10.465" fill="#007354" fill-rule="evenodd"/>
  <path d="m135.12 102.95h5.8906l10.34-30.254h-5.3828l-7.7539 23.941h-0.0859l-7.582-23.941h-5.5156zm19.539 0h5.2969v-30.254h-5.2969zm22.887-25.043h0.12891l4.5312 13.008h-9.2344zm-14.328 25.043h5.4726l2.8398-8.0078h12.074l2.8398 8.0078h5.6797l-11.656-30.254h-5.6328zm30.266-10.086c0.125 7.5 5.7188 10.812 12.625 10.812 6.0195 0 12.035-2.7188 12.035-9.4961 0-3.1367-1.9062-6.5273-5.8906-7.7148-1.5664-0.46484-8.2617-2.2031-8.7266-2.3281-2.1641-0.59375-3.6016-1.7812-3.6016-3.8984 0-3.0508 3.0898-3.9414 5.5508-3.9414 3.6406 0 6.2695 1.4414 6.5234 5.3398h5.2969c0-6.3125-5.2969-9.6641-11.609-9.6641-5.4648 0-11.059 2.8398-11.059 8.8984 0 3.1367 1.5234 6.2734 6.6953 7.6719 4.1524 1.1445 6.9062 1.6953 9.0234 2.5 1.2305 0.46484 2.5 1.3984 2.5 3.7266 0 2.2891-1.7383 4.5781-6.3984 4.5781-4.2383 0-7.668-1.8242-7.668-6.4844h-5.2969" fill="#7f7f85"/>
  <path d="m30.652 84.555c0.58594-3.6758 2.9219-6.1875 6.4258-6.1875 3.3242 0 5.7188 2.8008 5.8945 6.1875zm22.246 5.5469c0.46484-10.273-4.9648-18.449-15.82-18.449-8.9336 0-16.348 6.6562-16.348 15.941 0 10.156 6.7148 16.121 16.578 16.121 6.7734 0 13.254-3.0469 15.062-10.051h-9.2812c-0.93359 2.2188-3.2695 3.3281-5.6641 3.3281-4.2031 0-6.5977-2.7461-6.7734-6.8906zm34.328-6.4805c-0.69922-7.9961-7.4141-11.969-14.945-11.969-9.75 0-15.879 6.8906-15.879 16.523 0 9.2812 6.7695 15.539 15.879 15.539 8.0547 0 14.363-4.6797 15.238-12.793h-9.6328c-0.46875 3.2109-2.2188 5.1953-5.6641 5.1953-4.2031 0-5.8984-4.0312-5.8984-7.9414 0-4.2031 0.87891-8.9336 6.4219-8.9336 2.5117 0 4.7891 1.8125 4.8477 4.3789zm13.719 4.0898c0-3.8555 1.4024-8.4688 6.0156-8.4688 4.6094 0 6.0703 4.6133 6.0703 8.4688 0 3.8516-1.4609 8.4062-6.0703 8.4062-4.6133 0-6.0156-4.5547-6.0156-8.4062zm-9.9258 0c0 9.1055 6.5391 16.004 15.941 16.004 9.3984 0 15.996-6.8984 15.996-16.004 0-9.1094-6.5976-16.059-15.996-16.059-9.4023 0-15.941 6.9492-15.941 16.059" fill="#211e1e"/>
 </g>
</svg>
