<svg width="426.27" height="108.62" fill-rule="evenodd" stroke-linejoin="round" stroke-width="28.222" preserveAspectRatio="xMidYMid" version="1.2" viewBox="0 0 11278 2873.9" xmlns="http://www.w3.org/2000/svg" xmlns:ooo="http://xml.openoffice.org/svg/export">
 <defs class="TextShapeIndex"></defs>
 <defs class="EmbeddedBulletChars"></defs>
 <g transform="translate(-5831.2 -11271)">
  <g class="Master_Slide"></g>
 </g>
 <g transform="translate(-814.27 -1253.7)">
  <g transform="matrix(1.1102 0 0 1.1102 729.81 1237.2)" fill="#29166f">
   <path d="m8917.2 1501h160l-80-719zm-398 558 319-1555h358l279 1555h-319l-39-319h-240l-39 319zm1036 0v-1555h279v1236h359v319zm-1395 0v-1555h279v1555zm-996 0v-1555h318l200 917v-917h279v1555h-319l-239-838v838zm-439-598h319v199c0 279-159 399-439 399-319 0-439-160-439-478v-639c0-279 120-438 439-438s439 199 439 478v79h-319v-159c0-120-240-159-240 40v678 40c0 160 240 200 240 0zm-1396 598v-1555h718v318h-399v279h359v320h-359v319h399v319zm-637 0v-1237h-240v-318h798v318h-240v1237zm-1156 0v-1555h319l239 917v-917h239v1555h-279l-279-838v838zm-478-1555h318v1555h-318z"/>
   <g class="com.sun.star.drawing.PolyPolygonShape" transform="translate(-5469.8 -13632)">
    <g fill="#29166f">
     <rect class="BoundingBox" x="8528" y="15810" width="7177" height="82"/>
     <path d="m8528 15810h7175v81h-7175z"/>
    </g>
   </g>
  </g>
  <path transform="scale(26.458)" d="m80.326 47.383-1.9844 9.5723a45.803 45.765 0 0 0-4.9004 1.0352l-5.1309-7.502-8.4785 3.6758 2.1621 8.4609a45.803 45.765 0 0 0-4.2891 2.7852l-7.9941-5.1016-6.3574 6.707 5.3828 7.0332a45.803 45.765 0 0 0-3.4961 5.1094l-8.5-1.6211-3.4199 8.5859 7.1719 4.2793a45.803 45.765 0 0 0-1.1934 5.7578l-8.5234 1.7168 0.07422 9.2402 8.4512 1.2832a45.803 45.765 0 0 0 1.1699 5.6309l-6.8867 5.0547 3.9551 8.3516 7.6152-2.2188a45.803 45.765 0 0 0 3.1426 4.6777l-4.6562 7.2266 6.6816 6.3848 6.5742-4.9883a45.803 45.765 0 0 0 4.7891 3.2207l-1.6152 8.541 8.5898 3.4062 4.3086-7.248a45.803 45.765 0 0 0 6.0762 1.1895l1.293 8.3301 9.2402 0.0449 1.6738-8.4531a45.803 45.765 0 0 0 5.6426-1.1953l4.3574 7.332 8.5918-3.4062-1.6543-8.7461a45.803 45.765 0 0 0 4.6152-3.1777l6.7871 5.1504 6.6797-6.3848-4.8574-7.543a45.803 45.765 0 0 0 2.9336-4.4824l8.0273 2.3398 3.9551-8.3516-7.3242-5.373a45.803 45.765 0 0 0 1.0273-5.2246l9.0293-1.3711 0.0762-9.2402-9.1152-1.8359a45.803 45.765 0 0 0-1.1191-5.332l7.6894-4.5859-3.4199-8.5859-9.0293 1.7207a45.803 45.765 0 0 0-3.2617-4.8242l5.6758-7.418-6.3574-6.707-8.3066 5.3027a45.803 45.765 0 0 0-4.0488-2.709l2.2363-8.7383-8.4785-3.6758-5.2051 7.6133a45.803 45.765 0 0 0-5.4531-1.1523l-1.3789-9.4375zm4.3379 19.488a35.425 35.395 0 0 1 35.426 35.395 35.425 35.395 0 0 1-35.426 35.396 35.425 35.395 0 0 1-35.424-35.396 35.425 35.395 0 0 1 35.424-35.395z" fill="#29166f"/>
  <path d="m1392.6 2741.2 112.93-399.75 520.31 78.869-66.21 103.06 774.66 245.13-60.239 52.145 381.41 131.9-477.95-0.3238 31.518-65.325-911.37-59.008 87.04-72.199z" fill="#da251c"/>
  <path d="m1862.9 2031.1 817.66 4.3543-31.514 170.59-199.63 113.45 0.9467 816.79c3.7283 2.5838 195.76 128.69 199.49 131.27l17.016 151.25-789.53 4.8537 11.979-161.71 216.85-123.48-5.1936-827.86-218.03-116.36z" fill="#29166f"/>
 </g>
</svg>
