<svg width="577.02" height="105.57" version="1.1" viewBox="0 0 152.67 27.932" xmlns="http://www.w3.org/2000/svg" xmlns:xlink="http://www.w3.org/1999/xlink">
 <defs>
  <symbol id="a" overflow="visible"></symbol>
 </defs>
 <g transform="translate(-48.727 171.38)">
  <g transform="translate(6.1472 -101.83)">
   <g transform="matrix(1.0127 0 -.090906 .9875 0 0)" fill="#00895f" stroke-width=".69009" aria-label="LIQUIGÃS">
    <path d="m53.64-44.512 0.82811-4.6374h-8.9436l2.6776-15.237h-6.5145l-3.5057 19.875z"/>
    <path d="m63.108-44.512 3.5057-19.875h-6.5145l-3.5057 19.875z"/>
    <path d="m76.662-51.275 1.8494 2.2359q-0.57968 0.19323-1.0213 0.19323-1.6562 0-2.3739-1.0489-0.69009-1.0765-0.69009-2.788 0-0.88332 0.16562-1.8771 0.19323-1.0213 0.55207-1.9599 0.35885-0.96613 0.93853-1.7666 0.57968-0.80051 1.4078-1.2698 0.85571-0.49687 1.9047-0.49687 1.5182 0 2.3463 1.0213 0.82811 0.99373 0.82811 2.8156 0 0.7729-0.16562 1.6562-0.13802 0.7729-0.30364 1.4078-0.16562 0.60728-0.41406 1.1318l-1.739-2.1531zm10.545 6.1004-1.8494-2.2911q1.4078-1.4354 2.3187-3.3124 0.91092-1.8771 1.2422-3.7817 0.19322-1.0489 0.19322-2.0979 0-3.6713-2.3187-5.9624-2.3187-2.2911-6.4869-2.2911-2.2911 0-4.3338 0.7177t-3.6713 2.0979q-1.6286 1.3526-2.7328 3.2572-1.0765 1.9047-1.463 4.2234-0.24843 1.325-0.24843 2.4843 0 3.8645 2.3187 6.0176 2.3187 2.1255 6.4593 2.1255 1.5458 0 2.8156-0.30364t2.2911-0.7177l2.2359 2.7328z"/>
    <path d="m91.678-53.18q-0.24843 1.4906-0.24843 2.7052 0 3.4781 2.0427 4.9963 2.0703 1.4906 6.1832 1.4906 4.9411 0 7.6186-2.1807 2.7052-2.2083 3.5333-6.9837l1.9875-11.235h-6.5145l-2.0979 11.897q-0.30364 1.739-1.1594 2.7052-0.85572 0.93853-2.5119 0.93853-1.4354 0-2.0151-0.57968-0.55208-0.60728-0.55208-1.6838 0-0.55207 0.13802-1.3802l2.0979-11.897h-6.5145z"/>
    <path d="m119.83-44.512 3.5057-19.875h-6.5145l-3.5057 19.875z"/>
    <path d="m145.04-55.444h-8.916l-0.7729 4.3062h2.8708q-0.41406 0.99373-1.5458 1.6562-1.1318 0.63489-2.1807 0.63489-1.8218 0-2.6224-0.96613-0.7729-0.96613-0.7729-2.6224 0-0.80051 0.16562-1.7942 0.46927-2.7052 1.6838-4.251 1.2422-1.5734 3.1192-1.5734 2.6224 0 2.8984 2.5119h6.1832q0-3.5885-2.2083-5.4655-2.2083-1.9047-5.9072-1.9047-2.3739 0-4.4442 0.7729-2.0703 0.7729-3.6989 2.2083-1.601 1.4078-2.6776 3.3953-1.0489 1.9599-1.463 4.3338-0.22083 1.2698-0.22083 2.4015 0 1.9323 0.60728 3.4229 0.60728 1.463 1.7114 2.4567 1.1042 0.96613 2.5672 1.4354 1.463 0.49687 3.1744 0.49687 2.1531 0 3.7265-0.66249 1.5734-0.69009 2.6776-1.7666l-0.0828 1.9599h4.1958z"/>
    <path d="m156.77-66.209h3.7817l5.4655-4.0853h-5.7692zm2.1531 14.934h-4.113l3.2848-7.1218zm-7.2874 6.7629 1.2146-2.6224h6.4869l0.30364 2.6224h6.4869l-3.6161-19.875h-6.6249l-10.627 19.875z"/>
    <path d="m187.38-58.618q0-1.4078-0.41406-2.5395-0.41405-1.1594-1.2974-1.9875-0.88332-0.85572-2.3187-1.2974-1.4078-0.46926-3.3676-0.46926-3.8645 0-6.5421 1.6562-2.65 1.6286-3.1744 4.6926-0.11042 0.60728-0.11042 1.1318 0 1.325 0.57968 2.2359 0.57968 0.91092 1.5182 1.4906 0.96613 0.57968 1.9599 0.91092 0.99373 0.30364 2.5395 0.69009 1.7942 0.46926 2.6224 0.82811t0.82811 1.0489q0 0 0 0.08281-0.0276 0.05521-0.0276 0.11041-0.11041 0.69009-0.91092 1.0765-0.8005 0.38645-2.0427 0.38645-1.0766 0-1.7666-0.49687-0.7729-0.52447-0.80051-1.5734h-6.2384q-0.0552 0.41406-0.0552 0.7729 0 1.2422 0.52447 2.3187 0.52447 1.0489 1.5182 1.8494 0.99374 0.80051 2.4291 1.2422 1.4354 0.46926 3.2296 0.46926 4.2234 0 7.0666-1.739t3.4229-5.1067q0.11041-0.55207 0.11041-1.0489 0-1.2422-0.57967-2.1255-0.57968-0.91092-1.5182-1.463-0.93852-0.57968-1.9323-0.88332-0.96613-0.33124-2.5119-0.7453-1.8494-0.46926-2.7052-0.82811-0.82811-0.38645-0.82811-1.0765 0 0 0.0276-0.11042 0-0.0276 0-0.08281 0.19322-1.1318 2.2635-1.1318 1.0213 0 1.6286 0.35885 0.69009 0.41406 0.69009 1.3526z"/>
   </g>
  </g>
  <g transform="matrix(.35278 0 0 .35278 -270.88 20.214)" fill="#fff">
   <use x="964.08441" y="293.8606" width="100%" height="100%" xlink:href="#a"/>
   <use x="975.84387" y="293.8606" width="100%" height="100%" xlink:href="#a"/>
  </g>
 </g>
 <style type="text/css">.st0{display:none;fill:none;stroke:#ED1C24;stroke-width:0.25;stroke-miterlimit:10;}
	.st1{display:none;fill:none;stroke:#27AAE1;stroke-width:0.25;stroke-miterlimit:10;}
	.st2{display:none;fill:none;stroke:#9B8579;stroke-width:0.25;stroke-miterlimit:10;}
	.st3{fill:#00783F;}
	.st4{fill:#A2C7E2;}
	.st5{fill:#00205C;}
	.st6{fill:#004987;}
	.st7{fill-rule:evenodd;clip-rule:evenodd;fill:#FFDA00;}</style>
</svg>
