<svg width="200.55mm" height="67.145mm" version="1.1" viewBox="0 0 200.55 67.145" xmlns="http://www.w3.org/2000/svg">
 <g transform="translate(-33.551 -69.777)">
  <path d="m138.87 83.622-8.9405 19.445-9.1586-18.321-6.2363 28.077-6.8585 0.0532v5.9914h12.455l2.99-12 6.7396 13.092 6.3707-13.234 2.5926 12.142h95.281v-5.9914h-89.447zm91.477 2.0107c-4.4392 0.23034-9.4698 2.3154-10.212 11.732-0.17658 4.2558 0.99157 10.698 7.8595 12.423l3.7181 0.0755c0.98321 0.0495 1.7182-0.40945 1.8764-2.0516l-0.0537-3.7843-3.8535-0.0605c-5.5233-1.5206-4.0596-15.734 3.9383-12.077l-0.20154-5.8534zm-75.506 0.02326c-5.9556 0.02665-8.9343 5.4673-8.9343 12.212 0 6.7444 3.6819 12.185 8.9343 12.212 5.2777 0.0268 8.9343-5.4673 8.9343-12.212 0-6.7444-2.1179-12.242-8.9343-12.212zm32.389 0.3917v5.4224h3.9243v18.266h6.4213v-18.266h3.7098v-5.4224zm17.195 0v23.688h11.987v-5.4224h-5.7082v-3.9956h5.7082v-5.1372h-5.7082v-3.9956h5.7082v-5.1372zm-36.958 0.14314v23.959h6.179l-0.23978-13.756 5.1372 13.756h5.8797v-23.959h-5.9976l0.22893 12.825-5.0736-12.825zm-12.432 4.9883c2.0286-0.01595 2.6588 2.8596 2.6588 6.3867 0 3.5271-0.77513 6.3223-2.6588 6.3862-2.4035 0.0815-2.6588-2.859-2.6588-6.3862 0-3.5271 0.88639-6.3728 2.6588-6.3867z" fill="#113b87" fill-rule="evenodd" stop-color="#000000"/>
  <path d="m64.721 135.81c-0.57527-3.5035-0.68182-3.7108-2.1041-4.0938-1.6267-0.43803-2.681 0.0411-3.7475 1.7031-1.3877 2.1625-1.4369 2.1796-3.5045 1.212l-1.805-0.84466 0.28492-2.0614c0.19332-1.3987 0.19074-2.2108-8e-3 -2.5259-0.33307-0.52802-2.3377-1.7429-2.9067-1.7616-0.20729-7e-3 -0.97785 0.48714-1.7124 1.0976-2.0446 1.6994-2.3711 1.714-4.0126 0.17855l-1.4053-1.3145 0.97884-1.8779c1.0838-2.0793 1.066-2.6075-0.13126-3.8859-1.0222-1.0914-1.6304-1.1759-3.5915-0.49889-1.9799 0.68352-2.6066 0.45812-3.4052-1.2248-0.72105-1.5195-0.58934-1.9832 0.98724-3.4759 1.3636-1.291 1.4484-1.4519 1.31-2.484-0.23958-1.7862-0.87204-2.4995-2.2751-2.5658-1.6794-0.0793-2.8587-0.14879-3.258-0.19182-0.18659-0.0201-0.4196-0.64659-0.5178-1.3922-0.0982-0.74559-0.23909-1.6832-0.31309-2.0837-0.12177-0.65896 0.02221-0.79091 1.5167-1.3899 2.2237-0.89128 2.6501-1.4309 2.6501-3.354v-1.5559l-1.8644-0.84536c-2.2202-1.0067-2.6104-1.6199-2.1407-3.3642 0.36242-1.3459 1.0209-1.7478 2.8635-1.7478 1.6803 0 2.5466-0.44852 3.0104-1.5587 0.74587-1.7851 0.56531-2.382-1.2189-4.0293l-1.6332-1.5079 0.67771-1.2324c0.37274-0.67781 0.80232-1.3929 0.95462-1.5891 0.37678-0.48541 1.5496-0.44809 3.1598 0.10054 1.746 0.59493 2.4114 0.38171 3.5468-1.1365l0.93434-1.2494-1.1584-2.1476-1.1584-2.1477 1.3657-1.085c0.75111-0.59672 1.5196-1.1972 1.7076-1.3343 0.22627-0.16498 0.93564 0.2447 2.0966 1.2108 1.8506 1.5401 2.0223 1.5708 3.7811 0.67577 1.1926-0.60688 1.4255-1.3789 1.1083-3.6741-0.15082-1.0911-0.19175-2.0643-0.09097-2.1626 0.24679-0.2407 4.0511-1.4763 4.1533-1.3489 0.04441 0.0554 0.45071 0.79111 0.90288 1.635 1.0734 2.0031 1.7493 2.4388 3.3996 2.1913 0.70476-0.10568 1.4662-0.37696 1.6921-0.60284s0.5661-1.3741 0.75605-2.5516l0.34536-2.1409h2.2213c2.5038 0 2.282-0.24002 2.7188 2.9415 0.21605 1.5737 0.73306 2.0328 2.6337 2.3389 1.4794 0.23826 1.9415-0.0968 3.2228-2.3362 0.47744-0.83448 0.92692-1.5172 0.99883-1.5172 0.31773 0 3.6986 1.2058 3.8641 1.3781 0.10116 0.10535 0.01984 1.2832-0.1807 2.6174-0.20055 1.3342-0.34752 2.4422-0.32662 2.4621 0.37209 0.35505 2.6224 1.248 3.1451 1.248 0.38717 0 1.4676-0.52697 2.4009-1.171 1.8797-1.2971 2.1914-1.2759 3.8386 0.26041 1.0153 0.94698 0.98257 1.5185-0.21421 3.7395l-0.98608 1.83 1.1839 1.3093c0.65115 0.72013 1.2052 1.3418 1.2311 1.3814 0.02597 0.0397 0.79475-0.1851 1.7084-0.49944 2.7062-0.93107 3.1264-0.82923 4.3278 1.0488l1.0365 1.6203-0.69235 0.59147c-0.38079 0.32531-1.2546 1.0567-1.9418 1.6253l-1.2495 1.0338 0.49438 1.2494c0.9128 2.3068 1.1586 2.5305 2.814 2.5621 2.3 0.0439 2.8735 0.29201 3.2593 1.4101 0.18734 0.54299 0.34788 1.3954 0.35674 1.8943 0.015 0.84309-0.0953 0.9487-1.5643 1.4983-0.8692 0.32521-1.6841 0.59129-1.8108 0.59129s-0.46077 0.2545-0.74228 0.56557c-0.407 0.44972-0.47421 0.84002-0.32816 1.9055 0.23286 1.6989 0.64592 2.141 2.7874 2.9831l1.7337 0.68177-0.18529 1.8318c-0.10191 1.0075-0.23967 1.9198-0.30612 2.0273-0.0665 0.10752-1.0361 0.28056-2.1548 0.38453-2.4752 0.23005-3.0515 0.51443-3.5734 1.7635-0.65646 1.5711-0.50647 1.986 1.3135 3.6329l1.7174 1.5542-0.94338 1.6804c-1.0914 1.9441-1.5151 2.099-3.4604 1.2652-2.0172-0.86468-2.5499-0.77039-3.7209 0.6587-1.1128 1.3581-1.2126 1.7699-0.63423 2.6183 0.21107 0.30962 0.72553 1.1534 1.1432 1.8751l0.7595 1.3122-1.6899 1.3277c-0.92946 0.73023-1.7774 1.3277-1.8842 1.3277-0.10686 0-0.99578-0.70367-1.9754-1.5637l-1.7811-1.5637-1.3224 0.83865c-1.5376 0.97514-1.7332 1.5048-1.5769 4.2708l0.11153 1.9737-1.5966 0.44798c-0.87813 0.24639-1.8145 0.44798-2.0809 0.44798-0.27408 0-0.91328-0.67067-1.4728-1.5453-1.1645-1.8204-2.386-2.4117-3.9297-1.9022-1.1629 0.38379-1.5152 0.94125-1.7712 2.8024-0.11139 0.80991-0.38588 1.6247-0.60998 1.8107-0.2241 0.18599-1.2956 0.40171-2.3812 0.47938l-1.9737 0.14122zm7.5103-8.9536c5.8343-1.409 11.132-5.0446 14.751-10.123 2.7396-3.8443 3.8931-7.6948 3.8931-12.996 0-4.2067-0.58743-6.8821-2.2872-10.417-3.448-7.1704-10.449-12.111-18.838-13.295-13.135-1.8533-26.227 8.8251-26.956 21.987-0.52293 9.4418 4.1108 17.73 12.551 22.45 5.5222 3.0882 10.869 3.846 16.886 2.393z" fill="#0f3c82"/>
  <path d="m54.409 116.89-7.6696-15.841 5.526-7.4124 2.2626 3.6219 6.6677-11.688 5.9592 11.336 6.3406-11.193 6.7139 11.238 3.6096-3.5036 4.7633 8.358-8.2786 14.143-6.9089-9.4377-6.4424 12.166-6.5713-12.416z" fill="#f8c301"/>
 </g>
</svg>
