<svg width="400" height="60" version="1.1" viewBox="0 0 400 60" xmlns="http://www.w3.org/2000/svg">
 <g transform="translate(-30.877 -28.824)">
  <path d="m58.06 88.677c-6.5761-0.62772-12.698-3.4849-17.761-8.2895-5.1141-4.8532-8.3425-11.377-9.2169-18.624l-0.18414-1.5263 2.2767 0.20664c4.3434 0.39423 6.7203 2.1841 9.036 6.8046 2.3877 4.7642 5.032 7.537 9.4119 9.8693 3.291 1.7525 5.7549 2.3478 9.7341 2.3521 5.9748 0.0065 10.306-1.8496 14.758-6.3239 2.1586-2.1696 2.9317-3.2181 4.0424-5.4831 0.75537-1.5403 1.7233-3.2562 2.151-3.8132 1.5462-2.0136 5.036-3.5229 8.1457-3.5229h1.1201l-0.22675 2.1053c-0.81126 7.5321-5.0569 15.041-11.258 19.912-6.1752 4.8502-14 7.0997-22.03 6.3332zm176.47-0.0112c-6.937-0.53751-13.675-3.749-18.764-8.9439-4.8693-4.97-7.6914-10.854-8.5395-17.804l-0.20549-1.6841 2.2051 0.18363c4.353 0.36249 6.7508 2.1209 8.9422 6.5577 4.0548 8.2096 10.726 12.479 19.502 12.481 2.9714 6.24e-4 3.8226-0.12342 6.092-0.88771 5.2808-1.7785 9.9295-5.7834 12.285-10.584 0.6776-1.381 1.3216-2.8968 1.4312-3.3685l0.19918-0.85771h-21.106v-9.3569h31.17l-0.16794 4.7564c-0.1899 5.378-0.77247 8.0974-2.5561 11.932-5.5302 11.889-17.184 18.608-30.487 17.577zm45.373-29.587v-29.006h43.332v9.045h-32.97v15.283h27.318v9.397l-9.8126-0.11904c-6.5522-0.07948-10.199-0.24514-10.975-0.49854-2.642-0.86223-4.5985-3.0515-6.1735-6.908-0.22207-0.5438-0.30047 2.7593-0.25906 10.916l0.0594 11.696 32.813 0.16151v9.0394h-43.332zm55.503 2.5e-5 0.0817-29.006h7.8132c7.1501 0 7.8315 0.04633 8.028 0.54582 0.1181 0.3002 1.8159 4.7564 3.773 9.9027 1.957 5.1463 6.4153 16.866 9.9071 26.043 3.4919 9.1775 6.7532 17.774 7.2474 19.104l0.89852 2.4172h-0.87274c-1.3558 0-4.3017-0.84616-6.1037-1.7532-2.078-1.0459-5.2646-4.1985-6.2761-6.209-0.42908-0.85289-3.7927-9.7952-7.4748-19.872-3.6821-10.077-6.7459-18.27-6.8084-18.208-0.0625 0.06212-0.10574 10.447-0.0961 23.077l0.0176 22.965-10.217 4.7e-5 0.0817-29.006zm38.821 27.057c1.7726-4.631 10.109-26.544 15.484-40.702l5.8318-15.361h15.927v58.013h-10.048v-22.906c0-12.598-0.11103-22.974-0.24671-23.057-0.13569-0.0833-2.5618 6.1892-5.3914 13.939-2.8295 7.7497-5.9158 16.195-6.8583 18.768-1.9139 5.2239-3.0032 7.1214-5.3124 9.2536-2.3995 2.2156-6.5335 4.0029-9.2588 4.0029h-0.87334zm-270.42-9.5128c0.0852-10.182 0.14423-11.245 0.67953-12.242 0.82361-1.5337 1.7263-2.4492 3.1818-3.2273 1.2072-0.64533 1.7257-0.67747 13.345-0.82736l12.089-0.15595 1.727-0.81492c4.2774-2.0183 6.4843-6.5218 5.6668-11.564-0.64698-3.9903-2.7655-6.7313-6.2699-8.1121-1.6629-0.65521-2.2145-0.69098-10.858-0.70426l-9.1061-0.01398-0.1666 18.333-2.6141-0.16199c-3.7049-0.22959-5.7262-1.416-6.9841-4.0994-0.74287-1.5847-0.74817-1.6725-0.75121-12.45l-3e-3 -10.855 15.622 0.1096c17.306 0.12142 17.364 0.12751 21.902 2.2776 4.2717 2.0243 7.2727 5.5006 8.8504 10.252 0.74618 2.2472 0.83844 3.0086 0.85341 7.0421 0.0192 5.1662-0.38914 7.1835-2.1976 10.858-1.5263 3.1007-4.0664 5.6423-7.0659 7.0702-1.2688 0.6039-2.479 1.098-2.6896 1.098s-0.45528 0.11645-0.54384 0.25878c-0.0885 0.14233 3.0705 4.4582 7.0202 9.5908l7.1812 9.332-12.036 0.17571-0.7078-0.86759c-0.3893-0.47718-3.3566-4.5503-6.5941-9.0514l-5.8863-8.1838-13.345-0.0068v18.09h-10.392zm60.539 6.4718v-4.6784h11.304v-39.299h-12.246v-9.3569h34.854v9.3569l-10.755 0.02651c-9.2522 0.02283-10.53 0.08059-9.1492 0.41353 3.5256 0.84992 6.5827 3.369 7.3294 6.0397 0.20402 0.72966 0.32547 7.0487 0.32657 16.99l2e-3 15.829h11.618v9.3569h-33.284zm-133.29-27.167c1.0166-7.424 3.5704-12.939 8.2382-17.792 3.8004-3.9511 8.3327-6.7253 13.483-8.253 3.4096-1.0113 10.144-1.3784 13.721-0.74797 13.159 2.3191 23.502 13.256 24.897 26.329l0.19673 1.8428-2.2934-0.19098c-2.6923-0.2242-5.2076-1.3448-6.6298-2.9538-0.51044-0.57746-1.4793-2.1587-2.153-3.5139-1.6318-3.2824-2.7183-4.7963-4.9232-6.8599-6.7051-6.2757-15.724-7.5499-24.03-3.395-3.947 1.9744-7.1752 5.4271-9.5174 10.179-2.1481 4.3584-4.6535 6.1845-8.979 6.5447l-2.1992 0.18313zm176.16 0c1.0875-7.7952 3.5613-13.03 8.5806-18.157 3.7185-3.7985 7.9887-6.362 13.137-7.8867 3.4076-1.0091 9.7298-1.3616 13.522-0.75392 5.588 0.89539 10.727 3.3698 15.459 7.4432l1.099 0.94605-6.6952 6.6853-1.6405-1.4254c-3.4458-2.9941-8.2424-4.6849-13.33-4.699-3.8216-0.01063-6.2933 0.59689-9.6685 2.3764-4.275 2.2539-7.5197 5.7243-9.5682 10.234-1.8308 4.0303-4.6396 6.0726-8.8319 6.4217l-2.255 0.18778zm215.87-15.124c-2.3401-1.008-3.4589-2.6872-3.4511-5.1798 0.01-3.2306 2.2833-5.536 5.4692-5.5465 3.1157-0.01032 5.3048 1.8105 5.7104 4.7498 0.60408 4.3776-3.7048 7.7097-7.7286 5.9765zm4.5759-1.3389c1.1183-0.67735 2.0159-2.3505 2.0159-3.7576 0-4.2032-4.7843-6.1556-7.6934-3.1395-1.1364 1.1782-1.4493 3.7238-0.64709 5.2647 1.0845 2.0831 4.237 2.8968 6.3246 1.6324zm-4.5782-3.7784v-2.8071h1.8616c2.0683 0 2.8484 0.47594 2.8484 1.7377 0 0.4166-0.26539 1.0211-0.58979 1.3433-0.57707 0.57319-0.57639 0.60687 0.0308 1.5595l0.62059 0.97364h-0.74815c-0.49825 0-0.93397-0.3125-1.3046-0.93569-0.30607-0.51463-0.76043-0.93569-1.0097-0.93569-0.29429 0-0.45326 0.32818-0.45326 0.93569 0 0.72776-0.13955 0.93569-0.62801 0.93569-0.5815 0-0.628-0.20793-0.628-2.8071zm3.3055-0.63745c0.31011-0.49839-0.46657-1.2339-1.303-1.2339-0.587 0-0.74657 0.16666-0.74657 0.77974 0 0.65497 0.14776 0.77974 0.92348 0.77974 0.5079 0 1.0146-0.1465 1.126-0.32556z" fill="#193db8" stroke-width=".31295"/>
 </g>
</svg>
