<svg width="161.68mm" height="34.434mm" version="1.1" viewBox="0 0 161.68 34.434" xmlns="http://www.w3.org/2000/svg">
 <g transform="translate(-63.682 -142.67)">
  <path d="m75.767 143.03-0.28017 0.36145-0.23133 0.0145c-0.22321 0.0132-0.23412 0.0178-0.33394 0.11701l-0.10019 0.10478-0.2907-5e-3 -0.28806-5e-3 -0.07579 0.13337-0.0758 0.13336-0.06216-0.0553c-0.05217-0.0465-0.10672-0.0612-0.31202-0.0764l-0.25269-0.0187-0.10717-0.12813c-0.06812-0.0825-0.16091-0.15348-0.2479-0.19465-0.22792-0.10497-0.80748-0.32406-0.87065-0.32872-0.11844-9e-3 -0.06486 0.0914 0.22181 0.40917l0.28927 0.3179 0.0056 0.54552c5e-3 0.29698 0.01074 0.58331 0.0154 0.62907l0.0069 0.0886 0.2948 0.0217 0.29744 0.0219-0.02579 0.13704-0.02335 0.13991-0.26644-0.0115-0.26908-0.0116-0.04786 0.18619-0.05067 0.18866-0.47427 0.15475-0.47446 0.15743-0.69888-0.0327-0.69887-0.0329-0.11591-0.19025c-0.12772-0.20984-0.14976-0.30765-0.13144-0.59756 0.01364-0.18869-0.0079-0.32925-0.05007-0.33236-0.01315-4.8e-4 -0.10765 0.0616-0.21645 0.13904-0.16773 0.12391-0.2895 0.19776-0.32108 0.19544-0.0053-3.9e-4 -0.02871-0.0422-0.0514-0.0946-0.05007-0.1132-0.07032-0.12542-0.19012-0.11544-0.0664 3e-3 -0.09706 0.0248-0.12197 0.0765-0.03148 0.0699-0.03417 0.0697-0.34871 0.0652-0.17431-5e-3 -0.44336-0.0165-0.59866-0.0281-0.19478-0.0144-0.29297-0.0105-0.31028 9e-3 -0.01714 0.0174-0.06704 0.19548-0.11344 0.39781-0.07209 0.30198-0.08214 0.36804-0.05191 0.38898 0.01746 0.0147 0.11934 0.033 0.22463 0.0407 0.17899 0.0131 0.18937 0.016 0.18528 0.0724-0.0092 0.12759-0.03346 0.1338-0.37471 0.0952-0.38314-0.0443-0.36902-0.0567-0.39592 0.31551l-0.01883 0.26047 0.16137 0.22033 0.15873 0.22012-0.01778 0.53845c-0.01033 0.36263-0.0047 0.65165 0.02044 0.88864l0.03555 0.34999-0.23083 0.55748c-0.12796 0.30586-0.25593 0.61175-0.28461 0.6791l-0.05118 0.12181-0.41473-0.0466-0.4121-0.0464-0.20078 0.215-0.19833 0.21783-0.50833-0.0698-0.13209 0.17997-0.13472 0.1798-0.20794-0.0152c-0.24216-0.018-0.22784-0.033-0.27382 0.27374-0.04978 0.32232-0.04672 0.3172-0.18099 0.30732-0.06317-4e-3 -0.12467 4e-3 -0.13353 0.0169-0.01169 0.0151-0.04837 0.2663-0.08569 0.56284-0.0345 0.29405-0.07641 0.5448-0.09074 0.55978-0.01675 0.0121-0.10157 0.0132-0.19348 5e-3l-0.16502-0.0233-0.03482 0.26194c-0.02091 0.14276-0.04724 0.39734-0.05934 0.5648l-0.02209 0.30565 0.16206 0.13753 0.16187 0.14019-0.01384 0.19138-0.01402 0.19403 0.21075 0.26938c0.11372 0.14734 0.26141 0.33725 0.32709 0.41691l0.12143 0.15057 0.20531 0.015c0.23427 0.0173 0.23675 0.0196 0.22057 0.24339-0.01479 0.20467-0.0046 0.21074 0.44981 0.22021l0.38301 9e-3 0.1068-0.12307c0.09249-0.10807 0.12844-0.12948 0.26839-0.16192 0.0888-0.0202 0.16383-0.0333 0.1689-0.0303 0.0051 3e-3 -5e-3 0.28821-0.019 0.6292l-0.02655 0.62332 2.3426 0.1726 0.02203-0.19612c0.02001-0.16686 0.02681-0.18773 0.05291-0.14574 0.02832 0.0475 0.0362 0.0481 0.16319 0.012 0.18116-0.0535 0.20094-0.0708 0.20919-0.18499 0.0079-0.10894 0.04382-0.13037 0.20965-0.11816 0.10266 8e-3 0.13692-0.0274 0.17138-0.1744 0.03769-0.15488 0.22105-0.31236 0.3327-0.28277 0.05445 0.0151 0.12751-6e-3 0.29196-0.0853 0.19456-0.0925 0.23764-0.10277 0.38241-0.0921 0.19478 0.0144 0.39471 0.10397 0.46657 0.20808l0.05006 0.0759-0.07875 0.21065c-0.06646 0.18746-0.0788 0.24802-0.08069 0.49371l-0.0044 0.28024 0.17101 0.30655c0.23478 0.41277 0.40955 0.59398 0.88217 0.90139 0.50549 0.32851 1.2676 0.69466 2.1151 1.0137l0.68273 0.25606 0.04373 0.16356c0.04187 0.15272 0.05164 0.16412 0.17717 0.22146 0.12044 0.0543 0.13021 0.0656 0.12444 0.14547-0.0035 0.0479-0.0023 0.14144 6.2e-4 0.21113 0.0073 0.11812 0.0069 0.12343-0.05883 0.11858-0.04215-3e-3 -0.11625 0.0343-0.20041 0.10017l-0.13461 0.10499 0.12279 0.24153c0.11117 0.21928 0.1235 0.26829 0.15032 0.55619 0.01666 0.17221 0.03488 0.32321 0.04179 0.33708 7e-3 0.0117 0.31432 0.0446 0.68019 0.0715l0.6712 0.0495 0.0063 0.0591c0.0054 0.0352 0.01 0.11832 0.0127 0.19065 0.0074 0.1903 0.07716 0.32367 0.25553 0.49181 0.12412 0.11333 0.16746 0.17267 0.1805 0.24844 0.11129 0.62011 0.11522 0.63912 0.19445 0.71443l0.07905 0.0781-0.08355 0.16753-0.08112 0.17038-0.06451 1.1122-0.06472 1.1148-0.09259 0.29244-0.09258 0.29245 0.06088 0.1461c0.03388 0.0801 0.07347 0.15507 0.08849 0.16685 0.01501 0.0122 0.31959 0.045 0.67757 0.0715 0.57118 0.0421 0.64977 0.053 0.6341 0.0868-0.03716 0.0748 0.03349 0.12271 0.1914 0.13434l0.15003 0.0111 0.0089 0.0967c0.01347 0.14262 0.04825 0.17458 0.19828 0.18564l0.1316 0.0101-0.0523 0.50384c-0.04808 0.44537-0.05007 0.50935-0.01419 0.52535 0.03078 0.0134 0.3929-0.0539 0.64402-0.12354 0.02162-7e-3 0.01851 0.22046-0.0063 0.78246-0.02098 0.43666-0.03021 0.82077-0.01954 0.85629 0.01681 0.06 0.03242 0.0637 0.24301 0.0794l0.22373 0.0164-0.04117 0.34968c-0.05825 0.47668-0.08505 0.51747-0.47438 0.7052-0.23033 0.11125-0.33079 0.14662-0.50156 0.1661-0.12001 0.012-0.227 0.0287-0.24092 0.0383-0.01378 7e-3 -0.03019 0.0886-0.03692 0.18163l-0.0121 0.16746-0.23938 0.12665c-0.21999 0.11471-0.2567 0.14674-0.49105 0.4234-0.24018 0.28423-0.25263 0.31004-0.29806 0.49907l-0.04619 0.19969-0.37268 0.35996c-0.20489 0.19866-0.40394 0.38974-0.44386 0.42956-0.06254 0.0594-0.06611 0.0727-0.03684 0.1068 0.02231 0.0204 0.18812 0.0699 0.3757 0.11062 0.32839 0.0697 0.34643 0.0764 0.54496 0.22186 0.1912 0.13703 0.21072 0.15983 0.24907 0.28826 0.03817 0.13106 0.05016 0.14798 0.28458 0.30956l0.24456 0.16765 0.27767 0.0393c0.31977 0.0423 0.49453 0.114 0.52222 0.20684 0.01075 0.0357 0.01559 0.11337 0.01115 0.17452-6e-3 0.0825 0.01948 0.16976 0.10194 0.34685 0.09614 0.2075 0.11791 0.23583 0.2006 0.2633l0.09322 0.0283 0.0163 0.28712 0.01891 0.2873-0.09128 0.0548c-0.08846 0.0522-0.12221 0.11658-0.17822 0.34225-0.01476 0.0577-0.01541 0.10303 0.0023 0.11506 0.01501 0.0122 0.12883 0.0117 0.25628 5e-3l0.22867-0.0154 0.12658-0.14029c0.10077-0.11282 0.15912-0.15126 0.29476-0.19736l0.17063-0.0544 0.08598-0.27424c0.04779-0.14877 0.12763-0.33796 0.1759-0.4199 0.08728-0.14589 0.09821-0.15042 0.55962-0.38361 0.43921-0.21881 0.47535-0.24287 0.53626-0.35328 0.03903-0.0638 0.14742-0.24564 0.24864-0.40118 0.14967-0.24014 0.20449-0.30291 0.34963-0.40712 0.16998-0.11838 0.17582-0.12597 0.37387-0.52287l0.20107-0.40203 0.13205-0.0331c0.12395-0.0308 0.13544-0.0434 0.22126-0.20547 0.06748-0.12863 0.13947-0.20883 0.29725-0.3415l0.2056-0.17187 0.08644-0.93956 0.08644-0.93953 0.14153-0.20067c0.124-0.1779 0.16354-0.21239 0.34232-0.3061 0.11555-0.061 0.33052-0.21612 0.49131-0.35392 0.2766-0.23881 0.28827-0.25396 0.35154-0.43368l0.06365-0.18501 0.21936-0.0694c0.149-0.0479 0.35006-0.0838 0.62161-0.10655 0.45004-0.0389 0.55332-0.0768 0.61069-0.2115l0.03832-0.0908 0.39372 8e-3c0.2168 3e-3 0.40786-5e-3 0.42198-0.0169 0.01675-0.0122 0.04408-0.0608 0.06332-0.10755l0.03511-0.0829 0.88237 0.0569 0.88479 0.06 0.08833-0.087c0.04579-0.0474 0.10494-0.13388 0.12496-0.1912 0.04267-0.11442 0.01014-0.10077 0.4683-0.18191 0.2223-0.037 0.23887-0.0464 0.33156-0.15727 0.0957-0.11583 0.09588-0.11852 0.10343-0.36912 0.0049-0.14126 0.0194-0.26845 0.03694-0.29122 0.02015-0.0226 0.08994-0.0361 0.2193-0.0321l0.18768 3e-3 0.05847-0.11325c0.03357-0.0616 0.07438-0.18691 0.09163-0.27916 0.03276-0.16058 0.04465-0.17839 0.28555-0.43589l0.25238-0.26997 0.0785-0.28012c0.05994-0.20667 0.08247-0.33595 0.08275-0.48556 0.0035-0.15742 0.01748-0.24188 0.07583-0.38988 0.0687-0.18199 0.08023-0.30403 0.03962-0.43798-0.01293-0.041-0.0022-0.0428 0.08897-0.0229 0.09116 0.0201 0.36272-3e-3 0.4316-0.0404 0.01378-7e-3 0.04368-0.16512 0.06522-0.35324 0.03598-0.27792 0.05587-0.36997 0.11676-0.48039 0.04018-0.08 0.09478-0.24952 0.12339-0.38903 0.06629-0.33181 0.11612-0.43502 0.27429-0.573l0.1303-0.11864 0.08163-0.98266c0.07298-0.86305 0.07714-0.99367 0.0472-1.0921-0.01924-0.0629-0.028-0.12497-0.01916-0.13768 0.0115-0.0125 0.06488-0.0194 0.12018-0.0152 0.17372 0.0127 0.45168-0.13504 0.7155-0.38014 0.22145-0.20811 0.22729-0.2157 0.2369-0.34861 0.01075-0.14883 0.05163-0.20195 0.20463-0.26814 0.06565-0.0299 0.09207-0.0653 0.13812-0.19022 0.05003-0.14331 0.07303-0.16832 0.24904-0.29697 0.11727-0.0849 0.29071-0.25111 0.44367-0.42688l0.24827-0.28632 0.17359-0.0219c0.09347-0.0119 0.18226-0.0321 0.19638-0.0443 0.01413-0.0123 0.03589-0.0937 0.05029-0.18335l0.02753-0.16098 0.11003-0.0214c0.24921-0.043 0.2351-0.0307 0.41871-0.33789 0.09352-0.15877 0.17425-0.32381 0.17732-0.36635 0.0058-0.0798 0.06601-0.14477 0.207-0.22791 0.04425-0.0261 0.10642-0.11773 0.17547-0.26763l0.1064-0.2273 0.08787-0.99556 0.08523-0.99575-0.07804-0.12866c-0.06601-0.11171-0.08002-0.17424-0.10608-0.47275-0.01551-0.1882-0.03275-0.35248-0.03987-0.36368-0.0045-0.0115-0.32446-0.0507-0.70819-0.0869l-0.70144-0.0705-0.23982-0.1967c-0.1324-0.10852-0.36971-0.33987-0.52381-0.51421-0.47715-0.53754-0.76069-0.78825-1.1815-1.0437-0.45367-0.27661-0.93178-0.43476-1.4319-0.47163-0.21057-0.0154-0.34103-0.0412-0.52426-0.10549-0.13419-0.0474-0.27158-0.0867-0.3058-0.0892-0.03422-3e-3 -0.36402-0.12582-0.73461-0.27059l-0.67143-0.26595-0.08005 0.0822c-0.04291 0.0449-0.08082 0.0929-0.08157 0.1035-0.0021 0.0293-0.07806 0.0184-0.17803-0.0266-0.05901-0.0257-0.14665-0.13105-0.29261-0.34488-0.20318-0.3009-0.2105-0.30944-0.36272-0.36343-0.09038-0.0307-0.2452-0.12222-0.36802-0.21684-0.38126-0.28996-0.42954-0.31758-0.64853-0.36311-0.1797-0.04-0.2156-0.0561-0.25573-0.12303-0.02608-0.042-0.0951-0.14864-0.15456-0.24119l-0.1073-0.1629-0.60555-0.0426c-0.50026-0.0348-0.61146-0.034-0.63743-4e-3 -0.01735 0.0201-0.07432 0.1495-0.12379 0.2848-0.08496 0.22353-0.10286 0.25162-0.19941 0.30595l-0.10483 0.059-0.09054-0.0654-0.09035-0.068 0.03194-0.22211 0.03193-0.2221 0.20514-0.23872c0.16219-0.19378 0.19519-0.24748 0.17059-0.27334-0.0195-0.0228-0.2154-0.0587-0.50359-0.0987-0.4008-0.0564-0.47636-0.0725-0.50243-0.11459-0.08739-0.1454-0.09247-0.14845-0.30568-0.16417l-0.20526-0.015-0.02785-0.2372c-0.01434-0.13197-0.02612-0.26111-0.0242-0.28769 0.0018-0.0266 0.05662-0.12409 0.11898-0.21835 0.07709-0.11456 0.13086-0.23619 0.16075-0.35689l0.04765-0.18353-0.15058-0.2596-0.1504-0.26229-0.24852-0.0395c-0.13592-0.0234-0.25076-0.0453-0.25565-0.0508-0.0049-6e-3 -0.09091-0.4262-0.18903-0.9358-0.0981-0.50958-0.18658-0.93295-0.1939-0.94152-0.0073-9e-3 -0.06953-0.0266-0.13758-0.0368l-0.12537-0.0225-0.50902 0.85496c-0.27996 0.46835-0.51165 0.85478-0.5173 0.85969-0.0088 0.0108-1.4817-0.25886-1.6166-0.29553-0.07518-0.0215-0.14944-0.0192-0.26516 7e-3 -0.13205 0.0331-0.23001 0.0338-0.54266 3e-3l-0.38108-0.0363-0.04306 0.26671-0.04306 0.2667-0.37248-9e-3c-0.87413-0.0243-0.85025-0.0254-1.0067 0.0887l-0.13987 0.10459-0.333-6e-3c-0.18484-5e-3 -0.34617-7e-3 -0.36214-5e-3 -0.1087 3e-3 -0.62056-0.0912-0.62672-0.11574-4e-3 -0.019-0.01769-0.0841-0.02928-0.14377-0.01681-0.0973-0.053-0.14554-0.23624-0.31936l-0.21798-0.20579 0.1545-0.92917c0.08467-0.51215 0.1561-0.98785 0.16373-1.0568 0.0087-0.1196 0.0041-0.13063-0.07758-0.17139l-0.08679-0.0438 0.02585-0.17445c0.0247-0.1585 0.02117-0.18282-0.03757-0.28602l-0.06601-0.1117-0.19215-0.0142-0.19478-0.0144z" fill="#01904a"/>
  <path d="m83.303 151.98-0.33131 0.99907c1.5258 0 1.9325 0.32528 1.4228 1.8355l-3.0314 9.2007c-0.6536 1.9284-0.91709 2.2305-2.7795 2.2305l-0.33131 0.99907h7.7861l0.30888-0.99907c-2.2438 0-2.3424-0.27881-1.7397-2.1608l1.1184-3.4386c0.45616 0.11618 1.0858 0.27881 1.8038 0.27881 3.4106 0 6.9345-1.394 7.4911-5.6924 0.349-2.6952-1.9573-3.2528-4.6274-3.2528zm4.9146 1.2082c0.45479-0.0465 0.68218-0.0697 1.0861-0.0697 1.8175 0 2.5096 0.72025 2.2839 2.4628-0.30688 2.3699-1.5945 3.9963-4.2871 3.9963-0.47121 0-0.86607-0.0697-1.1742-0.11617z" fill="#fdc802" stroke-width=".45613"/>
  <path d="m131.8 152.4-0.29817 0.98288c1.5774 0 1.7075 0.43438 1.3048 1.7828l-2.7631 9.1421c-0.58639 1.8741-0.98028 2.1254-2.4768 2.1254l-0.31885 0.98288h6.7552l0.29817-0.98288c-1.6988 0-1.891-0.25143-1.3276-2.1027l1.0873-3.5424h0.48576c0.66739 0 0.89927 0.0914 1.0377 0.79995 0.34956 1.4856 0.51062 2.1712 1.1891 5.8281h4.409l0.29869-0.98288c-0.91007 0-1.4169-0.16019-1.7425-1.1658-1.0871-3.4511-1.3238-4.5254-1.7927-5.0054l0.0336-0.1142c2.082-0.50282 4.1014-1.6682 4.4457-4.5708 0.28202-2.377-1.7062-3.1771-4.1532-3.1771zm5.6312 1.1198c1.537 0 2.0609 0.86877 1.8846 2.3544-0.31184 2.6284-1.5055 3.6568-4.1941 3.8168l-0.74569-0.0233 1.8536-6.0792c0.41262-0.0686 0.79699-0.0687 1.2015-0.0687zm-29.263 1.3782c-1.3552 1.7163-1.9851 2.1822-3.5372 2.8391l-0.24443 0.91106h1.1477l-1.9513 6.166c-0.1546 0.48735-0.26543 0.93223-0.30902 1.2924-0.15129 1.2501 0.46897 1.6526 1.4635 1.6526 1.836 0 2.9731-1.3348 3.6303-2.1823l-0.53381-0.48731c-0.64439 0.74162-1.0386 0.99581-1.4402 0.99581-0.32513 0-0.38112-0.16948-0.34778-0.44494 0.0436-0.36021 0.28112-1.0594 0.28112-1.0594l1.8846-5.933h1.8361l0.34364-1.1018h-1.8934l0.85628-2.6484zm-7.4564 2.3518c-3.519 0-6.0916 3.242-6.4968 6.5898-0.27182 2.246 0.51769 3.9408 3.0231 3.9408 1.6065 0 3.1828-0.69905 4.5625-2.7756l-0.49557-0.4873c-0.86897 1.017-1.7123 1.5043-2.7451 1.5043-1.071 0-1.8101-0.52957-1.587-2.373l0.03359-0.27543c2.1842-0.1907 5.6539-1.208 5.9898-3.9837 0.21797-1.8011-1.1562-2.1399-2.2846-2.1399zm23.54 0.0212c-3.3469 0-5.7201 2.8606-6.1278 6.2296-0.38465 3.1783 1.2847 4.2375 3.3311 4.2375 3.366 0 5.6798-2.8389 6.0875-6.2079 0.38978-3.2207-1.2826-4.2592-3.2908-4.2592zm-6.5076 0.0424c-2.0272 0-2.814 2.3946-3.5672 3.8778h-0.26769l1.2072-3.8142h-0.97514l-3.0882 0.23306-0.10801 0.88987s0.38805-0.0424 0.59842-0.0424c0.51638 0 0.6027 0.23303 0.55397 0.63562-0.0462 0.3814-0.20089 0.86866-0.33125 1.3136l-2.2691 7.0559h2.773l0.87178-2.7756c0.40858-0.84755 2.2052-5.1067 3.391-5.1067 0.0765 0 0.0401 0.93224 0.86248 0.93224 0.65026 0 1.4107-0.59317 1.5389-1.6526 0.13078-1.0806-0.38685-1.5467-1.1901-1.5467zm95.888 0.1726c-0.65924 0-1.2388 0.30573-1.3379 1.0604-0.13929 1.0606 0.88907 1.142 0.67747 2.7533-0.24643 1.8765-1.8643 3.2433-3.9403 4.7527h-0.11988l0.2899-1.142c0.33482-2.5496 0.47084-4.6508 0.61392-7.2616h-1.5984l-2.6944 0.28578-0.11524 0.87694c0.26507-0.0408 0.44773-0.061 0.6475-0.061 0.67922 0 0.74958 0.22399 0.72089 1.203-0.0683 2.3456-0.33042 5.4052-0.61702 7.5876h2.0976c3.0218-1.7133 6.0973-4.1405 6.5794-7.8119 0.1875-1.4278-0.12479-2.2433-1.2035-2.2433zm-63.455 0.061c-3.6758 0-6.3629 3.1206-6.7862 6.3433-0.28393 2.1621 0.54046 3.7941 3.1574 3.7941 1.6781 0 3.3245-0.67331 4.7656-2.6722l-0.51729-0.46922c-0.90766 0.97905-1.7882 1.4485-2.867 1.4485-1.1187 0-1.8908-0.5101-1.6578-2.2846l0.0346-0.2651c2.2815-0.18357 5.9061-1.1629 6.257-3.8349 0.22768-1.7337-1.2078-2.0598-2.3864-2.0598zm9.0666 0.0202c-3.2163 0-6.0909 2.8761-6.549 6.364-0.27321 2.0805 0.40902 3.7326 3.006 3.7326 2.1375 0 3.5234-1.1219 4.5646-2.5089l-0.50075-0.44855c-0.67845 0.75469-1.5896 1.3054-2.7683 1.3054-1.1187 0-1.6535-0.48949-1.3643-2.6924 0.32411-2.468 1.374-4.8338 3.1719-4.8338 0.59931 0 0.76397 0.26504 0.72915 0.5302-0.0428 0.32634-0.3907 0.69313-0.46302 1.2438-0.0884 0.67309 0.28833 0.99994 0.92759 0.99994 1.0188 0 1.6079-0.8365 1.7177-1.6728 0.17142-1.3054-0.87352-2.0195-2.4717-2.0195zm8.8098 0c-3.496 0-5.9748 2.754-6.4006 5.997-0.40179 3.0595 1.3418 4.0793 3.4794 4.0793 3.516 0 5.9324-2.7333 6.3583-5.9764 0.40714-3.1003-1.3394-4.1-3.437-4.1zm13.904 0c-2.7169 0-4.3195 2.7741-5.1568 3.9775h-0.27957l1.4878-3.8752h-0.93896l-3.3058 0.22428-0.11265 0.85679s0.38485-0.0408 0.60461-0.0408c0.49943 0 0.63277 0.20363 0.58188 0.59117-0.0321 0.24477-0.14314 0.63252-0.14314 0.63253l-2.5559 7.445h2.8365l1.0961-3.0189c0.68424-1.4074 2.88-4.8953 3.9388-4.8953 0.33961 0 0.3968 0.32667 0.34055 0.75499-0.0643 0.48953-0.27388 1.0196-0.27388 1.0196l-1.7637 4.3036c-0.0587 0.14278-0.15351 0.40798-0.19637 0.73432-0.10714 0.81588 0.22286 1.3462 1.5813 1.3462 2.4772 0 3.5837-1.7335 3.8463-2.0598l-0.55759-0.46922c-0.35054 0.38754-0.90499 0.9586-1.5043 0.9586-0.31963 0-0.39801-0.16297-0.36587-0.40773 0.0268-0.20397 0.12144-0.46922 0.12144-0.46922l1.804-4.6095c0.15345-0.40795 0.31492-0.87707 0.38189-1.387 0.12053-0.91786-0.10815-1.6118-1.4666-1.6118zm9.2692 0c-3.2163 0-6.0909 2.8761-6.549 6.364-0.27322 2.0805 0.40849 3.7326 3.0055 3.7326 2.1375 0 3.5234-1.1219 4.5646-2.5089l-0.50023-0.44855c-0.67843 0.75469-1.5897 1.3054-2.7683 1.3054-1.1187 0-1.6541-0.48949-1.3648-2.6924 0.32411-2.468 1.374-4.8338 3.1719-4.8338 0.5993 0 0.76449 0.26504 0.72967 0.5302-0.0429 0.32634-0.3907 0.69313-0.46302 1.2438-0.0884 0.67309 0.28832 0.99994 0.92759 0.99994 1.0188 0 1.6079-0.8365 1.7177-1.6728 0.17143-1.3054-0.87353-2.0195-2.4717-2.0195zm8.5101 0c-2.7368 0-5.6538 2.5906-6.1547 6.4048-0.36696 2.7944 0.91054 3.7124 2.4288 3.7124 1.2785 0 2.1238-0.65297 3.0675-1.7544h0.15968c-0.0414 0.16318-0.0605 0.30603-0.0765 0.4284-0.12857 0.97904 0.3537 1.2645 1.3725 1.2645 2.1176 0 3.1028-1.2646 3.684-2.0397l-0.57258-0.51005c-0.37588 0.42833-0.79439 0.87747-1.3338 0.87747-0.41951 0-0.46434-0.26531-0.42684-0.55087 0.0402-0.30595 0.19585-0.73433 0.19585-0.73433l2.3291-6.935h-1.6376l-0.92501 0.9586h-0.11988c-0.3472-0.55071-0.71205-1.1219-1.9906-1.1219zm21.775 0c-3.496 0-5.9748 2.754-6.4006 5.997-0.40179 3.0595 1.3418 4.0793 3.4794 4.0793 3.516 0 5.9324-2.7333 6.3583-5.9764 0.40714-3.1003-1.3394-4.1-3.437-4.1zm-97.629 0.6997c0.91801 0 1.0258 1.1657 0.82838 2.7972-0.38722 3.1995-1.6409 5.657-2.9414 5.657-0.89886 0-1.0041-1.1864-0.80408-2.8391 0.38465-3.1783 1.5784-5.6152 2.9171-5.6152zm-24.048 0.0636c0.43988 0 0.54669 0.38134 0.47232 0.99581-0.2154 1.7799-1.6126 3.0515-3.1605 3.1998 0.48968-1.9918 1.6363-4.1956 2.6882-4.1956zm99.841 0.15503c0.83903 0 1.0341 0.79537 0.88677 1.9172-0.13661 1.0402-0.55668 2.2638-0.91158 3.1409-0.6511 1.6114-1.2606 2.4479-2.2794 2.4479-0.75913 0-1.0999-0.44881-0.87489-2.1621 0.34018-2.5904 1.601-5.3439 3.1791-5.3439zm-32.008 0.0408c0.95891 0 1.0713 1.1218 0.86507 2.6923-0.40447 3.0799-1.7142 5.4457-3.0727 5.4457-0.93891 0-1.0482-1.1422-0.83923-2.7332 0.40178-3.0595 1.6485-5.4048 3.0468-5.4048zm53.458 0c0.9589 0 1.0713 1.1218 0.86506 2.6923-0.40447 3.0799-1.7142 5.4457-3.0727 5.4457-0.93891 0-1.0482-1.1422-0.83922-2.7332 0.40178-3.0595 1.6485-5.4048 3.0468-5.4048zm-71.865 0.061c0.45946 0 0.57119 0.3671 0.49351 0.9586-0.225 1.7133-1.6842 2.9371-3.3011 3.0799 0.51148-1.9173 1.7088-4.0385 2.8076-4.0385z" fill="#25221e" stroke-width=".40325"/>
  <rect x="93.994" y="169.05" width="131.37" height=".99455" fill="#25221e" fill-rule="evenodd" stop-color="#000000" style="font-variation-settings:normal"/>
 </g>
</svg>
