<svg width="1253.2" height="260.01" version="1.1" viewBox="0 0 331.57 68.793" xmlns="http://www.w3.org/2000/svg" xmlns:xlink="http://www.w3.org/1999/xlink">
 <defs>
  <symbol id="a" overflow="visible"></symbol>
 </defs>
 <g transform="translate(-271.59 175.73)">
  <g transform="translate(6.1472 -101.83)">
   <path d="m284.71-43.711h5.7541c1.1354 0 2.1684 0.72566 2.1684 1.938 0 1.6221-1.2976 2.7575-3.099 2.7575h-6.1468z" fill="#00853f"/>
   <path d="m312.98-43.686h5.4297c2.5697 0 2.6722 1.7501 2.6722 2.2453 0 1.1611-1.0245 3.4405-4.1491 3.4405h-5.5322s1.5538-5.5407 1.5794-5.6858" fill="#00853f"/>
   <path d="m282-34.141h4.9687c2.4331 0 2.5697 0.65737 2.9027 1.2208 0.33293 0.56346 0.17927 1.7501-0.0428 2.1599-0.29888 0.51222-0.78545 2.1002-3.893 2.1002h-5.5236s1.5879-5.4724 1.5879-5.4809" fill="#00853f"/>
   <path d="m334.5-48.791v43.549h-68.921v-43.549h13.258l-7.3506 25.356h15.043c6.5139 0 7.6494-1.5196 8.9727-2.6295 1.7672-1.4769 2.7149-4.9943 1.9209-7.436-0.56345-1.7331-2.2026-2.7832-2.3819-2.8344 2.0404-0.9391 3.2271-3.0051 3.3722-3.3125 0.75128-1.5623 1.3403-4.4052-0.53787-6.6847-1.5623-1.8953-4.6016-2.4246-6.8042-2.4587h16.11l-7.3762 25.407h7.4616l2.7234-9.6386h4.2687c3.099 0 2.8173 1.9294 2.8941 2.7575l0.23892 7.0774h6.9323s-0.31589-7.9482-0.34147-8.5287c-0.0939-2.0404-1.4428-2.9624-2.6039-2.9624 2.2197-0.59759 4.1491-2.6124 4.9175-3.9015 0.8879-1.4855 1.5623-3.8503 0.683-6.1981-1.2806-3.4064-4.5675-3.9698-6.864-4.0125z" fill="#00853f"/>
   <path d="m265.57-21.834h68.921v-51.937h-68.921z" fill="#fff"/>
   <path d="m265.57-57.123h68.921v-16.648h-68.921z" fill="#ffcc30"/>
   <path d="m334.5-48.791v43.549h-68.921v-43.549h13.258l-7.3506 25.356h15.043c6.5139 0 7.6494-1.5196 8.9727-2.6295 1.7672-1.4769 2.7149-4.9943 1.9209-7.436-0.56345-1.7331-2.2026-2.7832-2.3819-2.8344 2.0404-0.9391 3.2271-3.0051 3.3722-3.3125 0.75128-1.5623 1.3403-4.4052-0.53787-6.6847-1.5623-1.8953-4.6016-2.4246-6.8042-2.4587h16.11l-7.3762 25.407h7.4616l2.7234-9.6386h4.2687c3.099 0 2.8173 1.9294 2.8941 2.7575l0.23892 7.0774h6.9323s-0.31589-7.9482-0.34147-8.5287c-0.0939-2.0404-1.4428-2.9624-2.6039-2.9624 2.2197-0.59759 4.1491-2.6124 4.9175-3.9015 0.8879-1.4855 1.5623-3.8503 0.683-6.1981-1.2806-3.4064-4.5675-3.9698-6.864-4.0125z" fill="#008b4f"/>
   <path d="m284.71-43.711h5.7541c1.1354 0 2.1684 0.72566 2.1684 1.938 0 1.6221-1.2976 2.7575-3.099 2.7575h-6.1468z" fill="#00853f"/>
   <path d="m312.98-43.686h5.4297c2.5697 0 2.6722 1.7501 2.6722 2.2453 0 1.1611-1.0245 3.4405-4.1491 3.4405h-5.5322s1.5538-5.5407 1.5794-5.6858" fill="#00853f"/>
   <path d="m282-34.141h4.9687c2.4331 0 2.5697 0.65737 2.9027 1.2208 0.33293 0.56346 0.17927 1.7501-0.0428 2.1599-0.29888 0.51222-0.78545 2.1002-3.893 2.1002h-5.5236s1.5879-5.4724 1.5879-5.4809" fill="#00853f"/>
   <path transform="matrix(.26458 0 0 .26458 26.615 -127.41)" d="m1705.6 298.22c-7.362 0-14.325 1.1242-20.889 3.373-6.5637 2.2489-12.462 5.5366-17.695 9.8613-5.2333 4.2383-9.624 9.3404-13.172 15.309-3.4593 5.9682-5.809 12.586-7.0508 19.852-0.7983 4.0653-1.1973 8.0008-1.1973 11.807 0 12.109 3.7251 21.494 11.176 28.154 7.5394 6.6601 17.917 9.9902 31.133 9.9902 7.0959 0 13.88-1.0818 20.356-3.2441 6.5637-2.2489 12.506-5.4922 17.828-9.7305 5.3219-4.3248 9.8028-9.6005 13.44-15.828 3.6366-6.2277 6.1648-13.191 7.584-20.889 0.6209-3.3733 0.9296-6.661 0.9296-9.8613 0-5.3627-0.842-10.38-2.5273-15.051-1.6853-4.6708-4.2575-8.7779-7.7168-12.324-3.4592-3.5463-7.8941-6.3153-13.305-8.3047-5.4106-2.0759-11.708-3.1133-18.893-3.1133zm414.04 0c-12.418 0-22.93 2.5954-31.533 7.7852-8.5151 5.1032-13.614 12.456-15.299 22.057-0.3548 1.9029-0.5332 3.675-0.5332 5.3184 0 4.1518 0.9323 7.6554 2.7949 10.51 1.8627 2.8544 4.3007 5.1895 7.3165 7.0059 3.1044 1.8164 6.2541 3.2433 9.4472 4.2812 3.1932 0.95145 7.2731 2.0332 12.24 3.2441 5.7654 1.4704 9.9777 2.7681 12.639 3.8926 2.661 1.1244 3.9922 2.7673 3.9922 4.9297v0.38867c-0.089 0.17298-0.1328 0.34653-0.1328 0.51953-0.3548 2.1624-1.8184 3.8496-4.3906 5.0606-2.5722 1.2109-5.8543 1.8164-9.8457 1.8164-3.4593 0-6.2982-0.77902-8.5157-2.3359-2.4835-1.6434-3.7687-4.1097-3.8574-7.3965h-30.07c-0.1774 1.2974-0.2656 2.5084-0.2656 3.6328 0 3.8923 0.844 7.5251 2.5293 10.898 1.6853 3.2868 4.1232 6.185 7.3164 8.6934s7.0966 4.454 11.709 5.8379c4.6123 1.4704 9.801 2.207 15.566 2.207 13.571 0 24.925-2.7246 34.06-8.1738 9.136-5.4492 14.635-13.451 16.498-24.004 0.3548-1.7299 0.5312-3.3728 0.5312-4.9297 0-3.8923-0.9303-7.2224-2.7929-9.9902-1.8627-2.8544-4.3026-5.1451-7.3184-6.875-3.0158-1.8164-6.1194-3.2009-9.3125-4.1524-3.1045-1.0379-7.1403-2.2065-12.107-3.5039-5.9428-1.4704-10.289-2.7681-13.039-3.8926-2.661-1.2109-3.9922-2.8962-3.9922-5.0586l0.1328-0.51953v-0.38867c0.6209-3.5463 4.2578-5.3203 10.91-5.3203 3.2818 0 5.8982 0.56306 7.8496 1.6875 2.2175 1.2974 3.3262 3.4166 3.3262 6.3574h29.803c0-4.4113-0.6656-8.3912-1.9961-11.938-1.3305-3.6328-3.4136-6.7469-6.2519-9.3418-2.8384-2.6814-6.5635-4.7137-11.176-6.0976-4.5237-1.4704-9.9348-2.2051-16.232-2.2051zm-853.9 2.4648-16.898 93.416h31.4l5.3223-29.062h15.832c13.394 0 23.859-2.8558 31.398-8.5644 7.6281-5.7952 12.374-13.882 14.236-24.262 0.4435-2.2489 0.666-4.4104 0.666-6.4863 0-7.9576-3.0154-14.099-9.0469-18.424-5.9428-4.4113-14.858-6.6172-26.744-6.6172zm98.588 0-16.896 93.416h79.961l3.9922-21.797h-48.562l2.6602-14.662h39.516l3.8574-21.797h-39.514l2.3946-13.363h46.699l3.9922-21.797zm90.072 0-4.3906 24.521h28.207l-12.506 68.895h31.398l12.506-68.895h28.207l4.3906-24.521zm100.05 0-16.896 93.416h31.398l5.8535-32.566h9.5801c5.588 0 9.4474 0.69225 11.576 2.0762 2.1288 1.2974 3.1914 3.5901 3.1914 6.877 0 1.8164-0.3088 4.2383-0.9297 7.2656-0.9757 5.7087-1.4648 10.292-1.4648 13.752 0 0.43247 0.044 0.99553 0.1328 1.6875v0.9082h31.799l0.5332-2.8555c-1.5966 0-2.3965-1.0374-2.3965-3.1133 0-1.2974 0.4892-4.6275 1.4649-9.9902 0.1773-0.95144 0.3538-2.0332 0.5312-3.2441 0.7096-3.6328 1.0645-6.7469 1.0645-9.3418 0-4.7572-0.9745-8.0873-2.9258-9.9902-1.9514-1.9029-5.2334-3.7193-9.8457-5.4492 5.588-1.4704 10.067-4.2374 13.438-8.3027 3.4592-4.0653 5.7207-8.9091 6.7851-14.531 0.4435-2.4219 0.666-4.5834 0.666-6.4863 0-7.0061-2.9712-12.11-8.914-15.311-5.8541-3.2003-15.656-4.8008-29.404-4.8008zm215.8 0-16.896 93.416h46.699c13.216 0 23.772-2.2059 31.666-6.6172 7.9829-4.4113 12.861-11.59 14.635-21.537 0.3548-1.6434 0.5332-3.2014 0.5332-4.6719 0-4.1518-1.1087-7.6978-3.3262-10.639-2.1287-3.0273-5.2343-5.0597-9.3144-6.0976 3.9914-2.1624 7.496-4.9738 10.512-8.4336 3.0158-3.5463 4.9224-7.5243 5.7207-11.936 0.2661-1.6434 0.3984-3.2015 0.3984-4.6719 0-3.5463-0.8861-6.5293-2.6601-8.9512-1.6853-2.5084-4.1252-4.4559-7.3184-5.8398-3.1044-1.4704-6.7413-2.5078-10.91-3.1133-4.1689-0.60547-8.8243-0.90821-13.969-0.90821zm102.05 0-16.896 93.416h31.398l5.8535-32.566h9.5801c5.588 0 9.4454 0.69225 11.574 2.0762 2.1287 1.2974 3.1933 3.5901 3.1933 6.877 0 1.8164-0.3107 4.2383-0.9316 7.2656-0.9757 5.7087-1.4629 10.292-1.4629 13.752 0 0.43247 0.044 0.99553 0.1328 1.6875v0.9082h31.799l0.5332-2.8555c-1.5966 0-2.3965-1.0374-2.3965-3.1133 0-1.2974 0.4891-4.6275 1.4648-9.9902 0.1774-0.95144 0.3539-2.0332 0.5313-3.2441 0.7095-3.6328 1.0644-6.7469 1.0644-9.3418 0-4.7572-0.9744-8.0873-2.9258-9.9902-1.9513-1.9029-5.2333-3.7193-9.8457-5.4492 5.5881-1.4704 10.067-4.2374 13.438-8.3027 3.4593-4.0653 5.7208-8.9091 6.7852-14.531 0.4435-2.4219 0.666-4.5834 0.666-6.4863 0-7.0061-2.9732-12.11-8.916-15.311-5.8541-3.2003-15.654-4.8008-29.402-4.8008zm131.19 0-51.225 93.416h30.734l5.8535-12.326h31.268l1.4629 12.326h31.266l-17.428-93.416zm-302.29 20.369c5.3219 0 9.1794 1.6872 11.574 5.0606 2.4836 3.3733 3.7266 7.7408 3.7266 13.104 0 2.5084-0.2667 5.0614-0.7988 7.6562-1.5079 8.217-4.2125 14.746-8.1153 19.59-3.9027 4.8437-9.0914 7.2656-15.566 7.2656-5.3219 0-9.1372-1.6429-11.443-4.9297-2.2175-3.3733-3.3262-7.7408-3.3262-13.104 0-2.7678 0.2666-5.7084 0.7988-8.8223 0.6209-3.2003 1.5071-6.272 2.6602-9.2129 1.1531-3.0273 2.6607-5.7944 4.5234-8.3027 1.8627-2.5084 4.1262-4.4983 6.7871-5.9688 2.7497-1.5569 5.8092-2.3359 9.1797-2.3359zm-408.06 1.4277h8.916c1.9514 0 3.7238 0.12919 5.3203 0.38867 1.6853 0.17298 3.2832 0.56249 4.7911 1.168 1.5078 0.51897 2.7048 1.3404 3.5918 2.4648 0.9756 1.038 1.4628 2.38 1.4628 4.0234v0.9082c-0.089 0.34598-0.1328 0.64872-0.1328 0.90821-0.7096 3.8058-2.3496 6.5728-4.9218 8.3027-2.5723 1.7299-5.8102 2.5957-9.7129 2.5957h-13.039zm288.71 0h14.635c3.4593 0 6.1639 0.64983 8.1153 1.9473 2.04 1.2974 3.0605 3.243 3.0605 5.8379 0 0.0865-0.044 0.38924-0.1328 0.90821-0.089 0.43248-0.1328 0.77762-0.1328 1.0371-0.5322 3.1138-2.1742 5.3641-4.9238 6.748-2.661 1.3839-6.5184 2.0742-11.574 2.0742h-12.373zm215.8 0h11.043c3.9027 0 6.8298 0.30274 8.7812 0.9082 1.9514 0.60547 2.9277 2.1635 2.9278 4.6719 0 0.0865-0.044 0.34487-0.1329 0.77734-0.089 0.43248-0.1328 0.77958-0.1328 1.0391-0.4435 2.5949-1.7747 4.6272-3.9922 6.0977-2.2174 1.3839-4.9681 2.0762-8.25 2.0762h-13.037zm102.05 0h14.635c3.4592 0 6.1639 0.64983 8.1152 1.9473 2.0401 1.2974 3.0606 3.243 3.0606 5.8379 0 0.0865-0.044 0.38924-0.1328 0.90821-0.089 0.43248-0.1329 0.77762-0.1329 1.0371-0.5322 3.1138-2.1741 5.3641-4.9238 6.748-2.6609 1.3839-6.5184 2.0742-11.574 2.0742h-12.373zm114.42 6.3574 3.9922 33.475h-19.824zm-222.32 26.209h9.9785c5.4993 0 9.5351 0.43193 12.107 1.2969 2.5723 0.77846 3.8574 2.5949 3.8574 5.4492 0 0.0865-0.044 0.38921-0.1328 0.9082-0.089 0.34598-0.1328 0.69113-0.1328 1.0371-0.5322 3.2003-2.084 5.4506-4.6562 6.748-2.5723 1.2109-6.0307 1.8164-10.377 1.8164h-13.705z" fill="#008b4f" stroke-width="3.2846"/>
  </g>
  <g transform="matrix(.35278 0 0 .35278 -270.88 20.214)" fill="#fff">
   <use x="964.08441" y="293.8606" width="100%" height="100%" xlink:href="#a"/>
   <use x="975.84387" y="293.8606" width="100%" height="100%" xlink:href="#a"/>
  </g>
 </g>
 <style type="text/css">.st0{display:none;fill:none;stroke:#ED1C24;stroke-width:0.25;stroke-miterlimit:10;}
	.st1{display:none;fill:none;stroke:#27AAE1;stroke-width:0.25;stroke-miterlimit:10;}
	.st2{display:none;fill:none;stroke:#9B8579;stroke-width:0.25;stroke-miterlimit:10;}
	.st3{fill:#00783F;}
	.st4{fill:#A2C7E2;}
	.st5{fill:#00205C;}
	.st6{fill:#004987;}
	.st7{fill-rule:evenodd;clip-rule:evenodd;fill:#FFDA00;}</style>
 <style type="text/css">.st0{display:none;fill:none;stroke:#ED1C24;stroke-width:0.25;stroke-miterlimit:10;}
	.st1{display:none;fill:none;stroke:#27AAE1;stroke-width:0.25;stroke-miterlimit:10;}
	.st2{display:none;fill:none;stroke:#9B8579;stroke-width:0.25;stroke-miterlimit:10;}
	.st3{fill:#00783F;}
	.st4{fill:#A2C7E2;}
	.st5{fill:#00205C;}
	.st6{fill:#004987;}
	.st7{fill-rule:evenodd;clip-rule:evenodd;fill:#FFDA00;}</style>
</svg>
