<svg width="2201" height="907.82" clip-rule="evenodd" fill-rule="evenodd" image-rendering="optimizeQuality" shape-rendering="geometricPrecision" text-rendering="geometricPrecision" version="1.1" viewBox="0 0 58236 24019" xmlns="http://www.w3.org/2000/svg">
 <defs>
  <style type="text/css"><![CDATA[
    .fil0 {fill:#82008F}
   ]]></style>
 </defs>
 <g transform="matrix(3.7767 0 0 3.7767 -1095.2 -3096.9)">
  <path class="fil0" d="m6654 820-1072 488v539l1072-334zm7810 1236c-334 0-604 115-861 359v-289h-751v3063h771v-1624c0-424 186-777 706-777 482 0 617 353 617 777v1624h764v-1862c0-700-417-1271-1246-1271zm-4239 1233c109-379 398-559 751-559 366 0 636 160 732 559zm745-1233c-912 0-1535 712-1535 1586 0 880 629 1586 1535 1586 732 0 1233-405 1426-995h-797c-109 186-282 289-584 289-456 0-719-232-796-623h2260c7-77 13-135 13-212 0-1060-681-1631-1522-1631zm-2967 4411c-411 0-687-301-687-700 0-398 276-700 687-700 405 0 687 302 687 700 0 399-282 700-687 700zm250-2716 1086-963v-662h-2608v713h1503l-963 841 642 745c-835 52-1349 642-1349 1349 0 796 649 1406 1445 1406 790 0 1452-610 1452-1406 0-424-116-739-379-1047zm-7212-1323v-302h-751v3063h771v-1618c0-424 186-751 751-751h231v-732h-167c-334 0-578 96-835 340zm4560 2761h777v-3172l-777 193zm-1959-706c-468 0-796-340-796-841s328-848 796-848c469 0 797 347 797 848s-328 841-797 841zm13-2427c-892 0-1580 706-1580 1586 0 918 604 1586 1497 1586 302 0 642-122 886-379v340h751v-1618c0-841-655-1515-1554-1515z" fill="#82008f"/>
 </g>
</svg>
