<svg width="1355.9" height="260.01" version="1.1" viewBox="0 0 358.75 68.793" xmlns="http://www.w3.org/2000/svg" xmlns:xlink="http://www.w3.org/1999/xlink">
 <defs>
  <symbol id="a" overflow="visible"></symbol>
 </defs>
 <g transform="translate(-271.59 175.73)">
  <g transform="translate(6.1472 -101.83)">
   <path d="m284.71-43.711h5.7541c1.1354 0 2.1684 0.72566 2.1684 1.938 0 1.6221-1.2976 2.7575-3.099 2.7575h-6.1468z" fill="#00853f"/>
   <path d="m312.98-43.686h5.4297c2.5697 0 2.6722 1.7501 2.6722 2.2453 0 1.1611-1.0245 3.4405-4.1491 3.4405h-5.5322s1.5538-5.5407 1.5794-5.6858" fill="#00853f"/>
   <path d="m282-34.141h4.9687c2.4331 0 2.5697 0.65737 2.9027 1.2208 0.33293 0.56346 0.17927 1.7501-0.0428 2.1599-0.29888 0.51222-0.78545 2.1002-3.893 2.1002h-5.5236s1.5879-5.4724 1.5879-5.4809" fill="#00853f"/>
   <path d="m334.5-48.791v43.549h-68.921v-43.549h13.258l-7.3506 25.356h15.043c6.5139 0 7.6494-1.5196 8.9727-2.6295 1.7672-1.4769 2.7149-4.9943 1.9209-7.436-0.56345-1.7331-2.2026-2.7832-2.3819-2.8344 2.0404-0.9391 3.2271-3.0051 3.3722-3.3125 0.75128-1.5623 1.3403-4.4052-0.53787-6.6847-1.5623-1.8953-4.6016-2.4246-6.8042-2.4587h16.11l-7.3762 25.407h7.4616l2.7234-9.6386h4.2687c3.099 0 2.8173 1.9294 2.8941 2.7575l0.23892 7.0774h6.9323s-0.31589-7.9482-0.34147-8.5287c-0.0939-2.0404-1.4428-2.9624-2.6039-2.9624 2.2197-0.59759 4.1491-2.6124 4.9175-3.9015 0.8879-1.4855 1.5623-3.8503 0.683-6.1981-1.2806-3.4064-4.5675-3.9698-6.864-4.0125z" fill="#00853f"/>
   <path d="m265.57-21.834h68.921v-51.937h-68.921z" fill="#fff"/>
   <path d="m265.57-57.123h68.921v-16.648h-68.921z" fill="#ffcc30"/>
   <path d="m334.5-48.791v43.549h-68.921v-43.549h13.258l-7.3506 25.356h15.043c6.5139 0 7.6494-1.5196 8.9727-2.6295 1.7672-1.4769 2.7149-4.9943 1.9209-7.436-0.56345-1.7331-2.2026-2.7832-2.3819-2.8344 2.0404-0.9391 3.2271-3.0051 3.3722-3.3125 0.75128-1.5623 1.3403-4.4052-0.53787-6.6847-1.5623-1.8953-4.6016-2.4246-6.8042-2.4587h16.11l-7.3762 25.407h7.4616l2.7234-9.6386h4.2687c3.099 0 2.8173 1.9294 2.8941 2.7575l0.23892 7.0774h6.9323s-0.31589-7.9482-0.34147-8.5287c-0.0939-2.0404-1.4428-2.9624-2.6039-2.9624 2.2197-0.59759 4.1491-2.6124 4.9175-3.9015 0.8879-1.4855 1.5623-3.8503 0.683-6.1981-1.2806-3.4064-4.5675-3.9698-6.864-4.0125z" fill="#008b4f"/>
   <path d="m284.71-43.711h5.7541c1.1354 0 2.1684 0.72566 2.1684 1.938 0 1.6221-1.2976 2.7575-3.099 2.7575h-6.1468z" fill="#00853f"/>
   <path d="m312.98-43.686h5.4297c2.5697 0 2.6722 1.7501 2.6722 2.2453 0 1.1611-1.0245 3.4405-4.1491 3.4405h-5.5322s1.5538-5.5407 1.5794-5.6858" fill="#00853f"/>
   <path d="m282-34.141h4.9687c2.4331 0 2.5697 0.65737 2.9027 1.2208 0.33293 0.56346 0.17927 1.7501-0.0428 2.1599-0.29888 0.51222-0.78545 2.1002-3.893 2.1002h-5.5236s1.5879-5.4724 1.5879-5.4809" fill="#00853f"/>
   <g transform="scale(1.0127 .9875)" fill="#008b4f" stroke-width=".86906" aria-label="TRANSPETRO">
    <path d="m354.95-41.893h7.3696l-3.2676 18.459h8.2039l3.2677-18.459h7.3696l1.1472-6.5701h-22.943z"/>
    <path d="m389.4-42.623h3.8239q1.3557 0 2.1205 0.52144 0.79953 0.52143 0.79953 1.5643 0 0.03476-0.0348 0.24334-0.0348 0.17381-0.0348 0.2781-0.20857 1.2514-1.2862 1.8076-1.0429 0.5562-3.0243 0.5562h-3.2329zm0.66049 10.463q2.19 0 3.0243 0.5562 0.83429 0.52143 0.83429 1.8424 0 0.73001-0.24333 1.9467-0.38239 2.2943-0.38239 3.6848 0 0.17381 0.0348 0.45191 0 0.17381 0 0.24334h8.3082l0.13905-0.76477q-0.62572 0-0.62572-0.8343 0-0.52143 0.38238-2.6767 0.0695-0.38238 0.13905-0.86906 0.2781-1.46 0.2781-2.5029 0-1.9119-0.76477-2.6767-0.76477-0.76477-2.5724-1.46 2.19-0.59096 3.511-2.2248 1.3557-1.6338 1.7729-3.8934 0.17381-0.97334 0.17381-1.7381 0-2.8157-2.3291-4.102-2.2943-1.2862-7.6825-1.2862h-11.819l-4.4148 25.029h8.2039l1.5295-8.7253z"/>
    <path d="m420.34-31.951h-5.1796l4.1367-8.9687zm-9.1772 8.5168 1.5295-3.3024h8.1691l0.38238 3.3024h8.1691l-4.5539-25.029h-8.343l-13.383 25.029z"/>
    <path d="m444.29-48.463h-7.6825l-4.4148 25.029h7.8563l1.3905-7.9258 0.69525-5.701 6.5353 13.627h7.6825l4.4148-25.029h-7.8563l-1.3905 7.9606-0.69524 5.701z"/>
    <path d="m485.14-41.198q0-1.7729-0.52144-3.1981-0.52143-1.46-1.6338-2.5029-1.1124-1.0776-2.92-1.6338-1.7729-0.59096-4.241-0.59096-4.8667 0-8.2387 2.0857-3.3372 2.051-3.9977 5.9096-0.13905 0.76477-0.13905 1.4253 0 1.6686 0.73001 2.8157 0.73001 1.1472 1.9119 1.8772 1.2167 0.73001 2.4681 1.1472 1.2514 0.38239 3.1981 0.86906 2.2596 0.59096 3.3024 1.0429t1.0429 1.321q0 0 0 0.10429-0.0348 0.06952-0.0348 0.13905-0.13905 0.86906-1.1472 1.3557-1.0081 0.48667-2.5724 0.48667-1.3557 0-2.2248-0.62572-0.97335-0.66048-1.0081-1.9815h-7.8563q-0.0695 0.52143-0.0695 0.97334 0 1.5643 0.66048 2.92 0.66048 1.321 1.9119 2.3291 1.2514 1.0081 3.0591 1.5643 1.8076 0.59096 4.0672 0.59096 5.3186 0 8.8992-2.19 3.5805-2.19 4.3105-6.431 0.13905-0.69525 0.13905-1.321 0-1.5643-0.73001-2.6767-0.73001-1.1472-1.9119-1.8424-1.1819-0.73001-2.4334-1.1124-1.2167-0.41715-3.1634-0.93858-2.3291-0.59096-3.4067-1.0429-1.0429-0.48667-1.0429-1.3557 0 0 0.0348-0.13905 0-0.03476 0-0.10429 0.24334-1.4253 2.8505-1.4253 1.2862 0 2.051 0.45191 0.86905 0.52143 0.86905 1.7034z"/>
    <path d="m496.43-37.061 0.97334-5.562h2.3291q0.76477 0 1.3905 0.10429 0.66048 0.06952 1.2514 0.31286 0.59096 0.20857 0.93858 0.66048 0.38239 0.41715 0.38239 1.0776 0 0.06952 0 0.24334-0.0348 0.13905-0.0348 0.24334-0.2781 1.5295-1.2862 2.2248-1.0081 0.69525-2.5376 0.69525zm-2.3986 13.627 1.3905-7.7868h4.1367q5.2491 0 8.2039-2.2943 2.9896-2.3291 3.7196-6.5005 0.17382-0.90382 0.17382-1.7381 0-3.1981-2.3638-4.9362-2.3291-1.7729-6.9872-1.7729h-12.063l-4.4148 25.029z"/>
    <path d="m532.48-23.434 1.0429-5.8401h-12.688l0.69524-3.9281h10.324l1.0081-5.8401h-10.324l0.62572-3.5805h12.202l1.0429-5.8401h-20.405l-4.4148 25.029z"/>
    <path d="m538.39-41.893h7.3696l-3.2676 18.459h8.2039l3.2676-18.459h7.3696l1.1472-6.5701h-22.943z"/>
    <path d="m572.84-42.623h3.8239q1.3557 0 2.1205 0.52144 0.79953 0.52143 0.79953 1.5643 0 0.03476-0.0348 0.24334-0.0348 0.17381-0.0348 0.2781-0.20858 1.2514-1.2862 1.8076-1.0429 0.5562-3.0243 0.5562h-3.2329zm0.66049 10.463q2.19 0 3.0243 0.5562 0.83429 0.52143 0.83429 1.8424 0 0.73001-0.24333 1.9467-0.38239 2.2943-0.38239 3.6848 0 0.17381 0.0348 0.45191 0 0.17381 0 0.24334h8.3082l0.13905-0.76477q-0.62572 0-0.62572-0.8343 0-0.52143 0.38239-2.6767 0.0695-0.38238 0.13905-0.86906 0.27809-1.46 0.27809-2.5029 0-1.9119-0.76477-2.6767-0.76477-0.76477-2.5724-1.46 2.19-0.59096 3.511-2.2248 1.3557-1.6338 1.7729-3.8934 0.17381-0.97334 0.17381-1.7381 0-2.8157-2.3291-4.102-2.2943-1.2862-7.6825-1.2862h-11.819l-4.4148 25.029h8.2039l1.5295-8.7253z"/>
    <path d="m604.02-43.006q2.0857 0 3.0243 1.3557 0.97335 1.3557 0.97335 3.511 0 1.0081-0.20858 2.051-0.59096 3.3024-2.1205 5.2491-1.5295 1.9467-4.0672 1.9467-2.0857 0-2.9896-1.321-0.86906-1.3557-0.86906-3.511 0-1.1124 0.20857-2.3638 0.24334-1.2862 0.69525-2.4681 0.45191-1.2167 1.1819-2.2248t1.7729-1.5991q1.0776-0.62572 2.3986-0.62572zm1.1472-6.1182q-2.8853 0-5.4577 0.90382t-4.6234 2.6419q-2.051 1.7034-3.4415 4.102-1.3557 2.3986-1.8424 5.3186-0.31286 1.6338-0.31286 3.1634 0 4.8667 2.92 7.5434 2.9548 2.6767 8.1344 2.6767 2.781 0 5.3186-0.86906 2.5724-0.90382 4.6582-2.6072 2.0857-1.7381 3.511-4.241 1.4253-2.5029 1.9815-5.5967 0.24333-1.3557 0.24333-2.6419 0-2.1553-0.66048-4.0324-0.66049-1.8772-2.0162-3.3024-1.3557-1.4253-3.4762-2.2248-2.1205-0.8343-4.9362-0.8343z"/>
   </g>
  </g>
  <g transform="matrix(.35278 0 0 .35278 -270.88 20.214)" fill="#fff">
   <use x="964.08441" y="293.8606" width="100%" height="100%" xlink:href="#a"/>
   <use x="975.84387" y="293.8606" width="100%" height="100%" xlink:href="#a"/>
  </g>
 </g>
 <style type="text/css">.st0{display:none;fill:none;stroke:#ED1C24;stroke-width:0.25;stroke-miterlimit:10;}
	.st1{display:none;fill:none;stroke:#27AAE1;stroke-width:0.25;stroke-miterlimit:10;}
	.st2{display:none;fill:none;stroke:#9B8579;stroke-width:0.25;stroke-miterlimit:10;}
	.st3{fill:#00783F;}
	.st4{fill:#A2C7E2;}
	.st5{fill:#00205C;}
	.st6{fill:#004987;}
	.st7{fill-rule:evenodd;clip-rule:evenodd;fill:#FFDA00;}</style>
</svg>
