<svg width="449.54" height="76.434" version="1.1" viewBox="0 0 118.94 20.223" xmlns="http://www.w3.org/2000/svg">
 <g transform="translate(-24.701 -112.4)">
  <g fill="#00895f" stroke-width="1.6258" aria-label="TUPI BV">
   <path d="m25.201 117.82h5.5146l-2.4452 13.813h6.1389l2.4452-13.813h5.5146l0.85841-4.9163h-17.168z"/>
   <path d="m43.982 123.46q-0.23411 1.4047-0.23411 2.5492 0 3.2776 1.9249 4.7082 1.9509 1.4047 5.8268 1.4047 4.6562 0 7.1794-2.055 2.5492-2.081 3.3296-6.5811l1.8729-10.587h-6.1389l-1.9769 11.211q-0.28614 1.6388-1.0925 2.5492-0.80638 0.88442-2.3671 0.88442-1.3526 0-1.8989-0.54626-0.52025-0.57227-0.52025-1.5868 0-0.52025 0.13006-1.3006l1.9769-11.211h-6.1389z"/>
   <path d="m71.815 121.43 0.72834-4.162h1.7428q0.57227 0 1.0405 0.078 0.49423 0.052 0.93644 0.23411 0.44221 0.15607 0.70233 0.49423 0.28614 0.31215 0.28614 0.80638 0 0.052 0 0.18209-0.02601 0.10405-0.02601 0.18208-0.2081 1.1446-0.96246 1.6648-0.75436 0.52025-1.8989 0.52025zm-1.7948 10.197 1.0405-5.8268h3.0955q3.9279 0 6.1389-1.7168 2.2371-1.7428 2.7833-4.8643 0.13006-0.67632 0.13006-1.3006 0-2.3931-1.7688-3.6938-1.7428-1.3266-5.2285-1.3266h-9.0263l-3.3036 18.729z"/>
   <path d="m89.295 131.63 3.3036-18.729h-6.1389l-3.3036 18.729z"/>
   <path d="m111.3 123.8q1.6128 0 2.3671 0.26012 0.75435 0.23411 0.75435 1.0925 0 0.026-0.026 0.18208-0.026 0.10405-0.026 0.2081-0.15607 0.96246-0.91043 1.3526-0.75436 0.36417-2.029 0.36417h-2.6793l0.59829-3.4596zm1.3526-6.5291q1.1445 0 1.7168 0.18209 0.57227 0.18208 0.57227 0.93644 0 0.026-0.026 0.15607-0.026 0.13006-0.026 0.2081-0.13007 0.78037-0.78037 1.2226-0.65031 0.4162-1.6128 0.4162h-2.5492l0.54626-3.1215zm-1.6908 14.359q3.8758 0 6.1909-1.3266 2.3411-1.3266 2.8614-4.318 0.10405-0.49423 0.10405-0.93644 0-1.2486-0.65031-2.133-0.62429-0.91043-1.8209-1.2226 1.1706-0.65031 2.055-1.6908 0.88442-1.0665 1.1185-2.3931 0.078-0.49423 0.078-0.93644 0-1.0665-0.52025-1.7948-0.49423-0.75436-1.4307-1.1706-0.91043-0.44221-2.133-0.62429-1.2226-0.18209-2.7313-0.18209h-8.9482l-3.3036 18.729z"/>
   <path d="m127.17 131.63h6.1649l9.8066-18.729h-6.1909l-5.5926 12.46-1.0925-12.46h-6.1909z"/>
  </g>
 </g>
</svg>
